<?xml version="1.0" standalone="no"?>
<!DOCTYPE svg PUBLIC "-//W3C//DTD SVG 1.1//EN" "http://www.w3.org/Graphics/SVG/1.1/DTD/svg11.dtd" >
<svg xmlns="http://www.w3.org/2000/svg" xmlns:xlink="http://www.w3.org/1999/xlink" version="1.1">
<metadata></metadata>
<defs>
<font id="sukhumvit_tadmaibold" horiz-adv-x="0" >
<font-face units-per-em="2048" ascent="1536" descent="-512" />
<missing-glyph horiz-adv-x="471" />
<glyph unicode="&#xe2f;&#xe2f;" horiz-adv-x="1660" d="M61 1022v125h263v-125q0 -102 39 -151.5t108 -49.5q110 0 191 71t81 187v68h263v-346q104 5 182 84t78 194v68h262v-1147h-266v784q-37 -70 -105.5 -122.5t-150.5 -65.5v-596h-267v784q-43 -76 -125.5 -124t-183.5 -48q-173 0 -271 114t-98 296z" />
<glyph unicode="&#xe4f;&#x22;" horiz-adv-x="1118" d="M123 492q0 182 127.5 309t308.5 127t308.5 -127t127.5 -309q0 -118 -58 -219t-158.5 -160.5t-219.5 -59.5t-219.5 59.5t-158.5 160.5t-58 219zM213 492q0 -144 102 -245.5t244 -101.5q145 0 245.5 101t100.5 246q0 142 -101 244t-245 102q-141 0 -243.5 -102.5 t-102.5 -243.5zM305 489q0 106 74 180t178 74q106 0 180 -73.5t74 -177.5q0 -105 -74.5 -178.5t-177.5 -73.5q-106 0 -180 72.5t-74 176.5zM309 1409h189l-31 -393h-127zM457 489q0 -41 29.5 -70.5t72.5 -29.5q41 0 69.5 30t28.5 73q0 41 -29.5 69.5t-70.5 28.5t-70.5 -30 t-29.5 -71zM621 1409h188l-31 -393h-127z" />
<glyph unicode="&#xe24;&#xe32;" horiz-adv-x="1994" d="M78 811q44 144 198.5 252t356.5 108q233 0 373 -127q155 127 372 127q224 0 354 -126t130 -332v-1123h-267v1123q0 119 -63.5 182t-165.5 63q-146 0 -250 -86q27 -70 27 -159v-1123h-266v1123q0 121 -66 183t-184 62q-83 0 -161.5 -42t-107.5 -97l144 -117v-47 q-101 -46 -101 -174v-239q0 -33 31 -33h119v-209h-180q-116 0 -176 59.5t-60 165.5v254q0 64 30 115t79 82z" />
<glyph unicode="&#xe26;&#xe32;" horiz-adv-x="2015" d="M51 0v209h94q31 0 31 33v237q0 127 100 189l-186 143q42 146 196.5 253t360.5 107q233 0 375 -129q153 129 377 129t353.5 -126t129.5 -332v-1123h-266v1123q0 119 -63.5 182t-166.5 63q-152 0 -253 -90q24 -74 24 -155v-1123h-266v1123q0 121 -65.5 183t-184.5 62 q-87 0 -162.5 -41t-107.5 -98l159 -123v-45q-88 -48 -88 -170v-256q0 -107 -59.5 -166t-175.5 -59h-156z" />
<glyph unicode="fi" horiz-adv-x="1204" d="M16 805v184h152q0 198 120.5 307t311.5 109q76 0 154 -17.5t127 -46.5l-54 -157q-75 33 -180 33q-116 0 -169.5 -52t-53.5 -176h641v-989h-262v805h-379v-805h-256v805h-152z" />
<glyph unicode="fl" horiz-adv-x="1265" d="M16 805v184h152q0 201 128.5 308.5t352.5 107.5q265 0 477 -100v-1305h-262v1190q-100 27 -217 27q-116 0 -169.5 -52t-53.5 -176h272v-184h-272v-805h-256v805h-152z" />
<glyph unicode="&#xd;" horiz-adv-x="399" />
<glyph unicode=" "  horiz-adv-x="471" />
<glyph unicode="&#x09;" horiz-adv-x="471" />
<glyph unicode="&#xa0;" horiz-adv-x="471" />
<glyph unicode="!" horiz-adv-x="557" d="M113 133q0 66 45 113t121 47t120.5 -47t44.5 -113t-44.5 -113t-120.5 -47t-121 47t-45 113zM143 1042v338h271v-338l-45 -645h-181z" />
<glyph unicode="&#x22;" horiz-adv-x="778" d="M92 1409h244l-39 -483h-166zM442 1409h244l-39 -483h-166z" />
<glyph unicode="#" horiz-adv-x="1208" d="M47 387v193h211l39 174h-170v194h209l84 383h219l-82 -383h215l84 383h219l-84 -383h170v-194h-211l-39 -174h172v-193h-211l-84 -387h-219l82 387h-215l-82 -387h-221l84 387h-170zM473 578h221l39 178h-219z" />
<glyph unicode="$" horiz-adv-x="1208" d="M131 76l66 211q75 -43 169 -70t179 -27v385q-45 15 -75 26t-76.5 32.5t-78 42t-67.5 53.5t-58 69t-36.5 85.5t-14.5 105.5q0 148 102 247t304 116v184h131v-182q178 -9 336 -86l-66 -197q-131 58 -270 68v-359q47 -17 79.5 -30.5t77 -35.5t75 -43.5t64 -53.5t53.5 -67 t33 -81.5t13 -99.5q0 -166 -108.5 -265t-286.5 -120v-189h-131v180q-254 6 -414 101zM391 993q0 -61 40 -99.5t114 -68.5v308q-76 -13 -115 -50t-39 -90zM676 207q145 44 145 166q0 55 -37.5 91t-107.5 66v-323z" />
<glyph unicode="%" horiz-adv-x="1622" d="M61 993q0 152 85.5 257.5t222.5 105.5t222 -105.5t85 -257.5t-85 -257t-222 -105t-222.5 105t-85.5 257zM270 993q0 -89 26.5 -145.5t72.5 -56.5t72 56.5t26 145.5t-26 146t-72 57t-72.5 -57t-26.5 -146zM313 0l752 1352h244l-752 -1352h-244zM946 338q0 152 85 257 t222 105t222.5 -105t85.5 -257t-85.5 -257.5t-222.5 -105.5t-222 105.5t-85 257.5zM1155 338q0 -89 26 -146t72 -57t72.5 57t26.5 146t-26.5 146t-72.5 57t-72 -57t-26 -146z" />
<glyph unicode="&#x26;" horiz-adv-x="1333" d="M86 395q0 120 65 209.5t179 169.5l-15 17q-64 78 -96.5 141t-32.5 133q0 156 99.5 248t275.5 92q102 0 178.5 -25t120 -69.5t64 -98.5t20.5 -118q0 -63 -20 -117.5t-59 -99t-82 -78.5t-101 -70l268 -309q41 70 41 192v105h262v-105q0 -219 -133 -387l193 -225h-312 l-73 84q-64 -49 -151.5 -79t-182.5 -30q-128 0 -227 33t-159.5 91t-91 132.5t-30.5 163.5zM373 399q0 -89 59 -140.5t166 -51.5q98 0 180 47l-295 342q-110 -92 -110 -197zM451 1075q0 -63 67 -157l23 -27q62 33 100.5 81.5t38.5 106.5q0 50 -29.5 83.5t-81.5 33.5 q-118 0 -118 -121z" />
<glyph unicode="'" horiz-adv-x="428" d="M92 1409h244l-39 -483h-166z" />
<glyph unicode="(" horiz-adv-x="643" d="M102 586q0 169 34.5 307t98.5 239t141 173t177 131l70 -125q-136 -93 -205.5 -288t-69.5 -437t69.5 -437t205.5 -288l-70 -125q-100 59 -177 131t-141 173t-98.5 239t-34.5 307z" />
<glyph unicode=")" horiz-adv-x="643" d="M20 -139q135 95 205 289.5t70 435.5t-70 435.5t-205 289.5l70 125q100 -59 177 -131t141 -173t98.5 -239t34.5 -307t-34.5 -307t-98.5 -239t-141 -173t-177 -131z" />
<glyph unicode="*" horiz-adv-x="968" d="M61 770l308 184q-45 26 -147 89t-154 92l153 149l191 -203l-47 299h241l-47 -297l189 201l153 -149l-301 -181q56 -34 168 -101t139 -83q-22 -21 -74 -69.5t-83 -79.5l-191 213l47 -299h-241l51 303l-197 -217q-34 34 -158 149z" />
<glyph unicode="+" horiz-adv-x="1208" d="M154 477v209h325v330h250v-330h326v-209h-326v-330h-250v330h-325z" />
<glyph unicode="," horiz-adv-x="536" d="M88 -256l53 526h299l-178 -526h-174z" />
<glyph unicode="-" horiz-adv-x="675" d="M41 424v209h594v-209h-594z" />
<glyph unicode="." horiz-adv-x="536" d="M102 133q0 66 45 113t121 47t121 -47t45 -113t-45 -113t-121 -47t-121 47t-45 113z" />
<glyph unicode="/" horiz-adv-x="813" d="M0 -82l580 1462h233l-580 -1462h-233z" />
<glyph unicode="0" horiz-adv-x="1208" d="M78 666q0 322 141.5 506t384.5 184t384.5 -184t141.5 -506t-141.5 -506.5t-384.5 -184.5t-384.5 184.5t-141.5 506.5zM344 666q0 -233 69.5 -353t190.5 -120t190.5 120t69.5 353t-69.5 353t-190.5 120t-190.5 -120t-69.5 -353z" />
<glyph unicode="1" horiz-adv-x="1208" d="M180 0v225l307 -4v860l-266 -65v196l334 119h199v-1110l295 4v-225h-869z" />
<glyph unicode="2" horiz-adv-x="1208" d="M115 0v174l325 334q167 172 216 233q97 121 102 221v13q0 79 -50 121.5t-149 42.5q-186 0 -340 -80l-59 196q72 41 185 71t216 30q230 0 344.5 -101.5t114.5 -279.5q0 -62 -22.5 -128.5t-55.5 -123t-89.5 -125.5t-103 -118.5t-118.5 -121.5l-129 -129h555v-229h-942z" />
<glyph unicode="3" horiz-adv-x="1208" d="M115 76l59 196q72 -37 171.5 -58t195.5 -21q123 0 200.5 57.5t77.5 148.5q0 83 -71 132t-175 49h-229v208h229q83 0 146 50t63 127q0 80 -63 127t-182 47q-199 0 -353 -80l-59 196q76 41 192 71t240 30q229 0 358 -106t129 -267q0 -200 -204 -285q102 -26 173.5 -110.5 t71.5 -198.5q0 -188 -146 -301t-372 -113q-136 0 -258.5 29t-193.5 72z" />
<glyph unicode="4" horiz-adv-x="1208" d="M76 240v170l672 921h223v-878h147v-213h-147v-240h-262v240h-633zM358 453h355v489z" />
<glyph unicode="5" horiz-adv-x="1208" d="M102 76l68 207q162 -90 362 -90q128 0 197.5 67t69.5 166q0 217 -258 217h-369v158l53 530h762v-229h-541l-18 -230h115q254 0 388 -115.5t134 -328.5q0 -207 -142.5 -330t-387.5 -123q-276 0 -433 101z" />
<glyph unicode="6" horiz-adv-x="1208" d="M106 653q0 332 156 517.5t410 185.5q170 0 334 -94l-66 -199q-118 80 -248 80q-146 0 -225.5 -98t-91.5 -269q128 107 323 107q85 0 158.5 -26t132 -76.5t92 -133t33.5 -186.5q0 -207 -132 -346.5t-343 -139.5q-251 0 -392 174.5t-141 503.5zM369 569q4 -177 81 -279 t185 -102q97 0 160 71.5t63 195.5q0 102 -56 162.5t-159 60.5q-152 0 -274 -109z" />
<glyph unicode="7" horiz-adv-x="1208" d="M147 1106v225h938v-164l-524 -1167h-272l499 1106h-641z" />
<glyph unicode="8" horiz-adv-x="1208" d="M106 379q0 112 66.5 198t159.5 121q-89 46 -139 120.5t-50 174.5q0 172 121 267.5t340 95.5t340 -95.5t121 -267.5q0 -100 -49.5 -174.5t-138.5 -120.5q93 -35 159 -121t66 -198q0 -190 -133.5 -297t-364.5 -107t-364.5 107t-133.5 297zM365 383q0 -92 65 -145.5 t174 -53.5t174.5 53.5t65.5 145.5q0 93 -61.5 142.5t-178.5 49.5q-116 0 -177.5 -49.5t-61.5 -142.5zM397 971q0 -89 56.5 -140t150.5 -51t150.5 51t56.5 140q0 83 -57.5 131.5t-149.5 48.5t-149.5 -48.5t-57.5 -131.5z" />
<glyph unicode="9" horiz-adv-x="1208" d="M94 870q0 207 132 346.5t343 139.5q251 0 392 -174.5t141 -503.5q0 -169 -42 -303t-117 -221t-178.5 -133t-227.5 -46q-220 0 -355 76l66 199q112 -62 268 -62q150 0 231 97.5t87 269.5q-127 -106 -324 -106q-85 0 -158.5 26t-132 76.5t-92 132.5t-33.5 186zM350 877 q0 -102 56 -163t159 -61q153 0 275 109q-4 177 -81.5 279t-185.5 102q-97 0 -160 -71t-63 -195z" />
<glyph unicode=":" horiz-adv-x="577" d="M123 133q0 66 45 113t121 47t121 -47t45 -113t-45 -113t-121 -47t-121 47t-45 113zM123 829q0 66 45 113t121 47t121 -47t45 -113t-45 -112.5t-121 -46.5t-121 46.5t-45 112.5z" />
<glyph unicode=";" horiz-adv-x="577" d="M90 -256l53 526h299l-178 -526h-174zM123 829q0 66 45 113t121 47t121 -47t45 -113t-45 -112.5t-121 -46.5t-121 46.5t-45 112.5z" />
<glyph unicode="&#x3c;" horiz-adv-x="1208" d="M123 555v147l926 504v-252l-641 -325l641 -326v-250z" />
<glyph unicode="=" horiz-adv-x="1208" d="M164 285v188h880v-188h-880zM164 662v188h880v-188h-880z" />
<glyph unicode="&#x3e;" horiz-adv-x="1208" d="M160 53v250l641 326l-641 325v252l925 -504v-147z" />
<glyph unicode="?" horiz-adv-x="1026" d="M72 1298q187 107 401 107q222 0 336.5 -99t114.5 -266q0 -59 -19 -112t-48.5 -92.5t-66 -76t-73 -71t-66 -70t-48.5 -80.5t-19 -94q0 -45 10 -84h-225q-31 51 -31 101q0 70 33 133t79.5 111t93.5 95t80 105t33 121q0 67 -48 114.5t-144 47.5q-168 0 -330 -94zM317 133 q0 66 45 113t121 47t121 -47t45 -113t-45 -113t-121 -47t-121 47t-45 113z" />
<glyph unicode="@" horiz-adv-x="1716" d="M123 655q0 154 53 291t149.5 238.5t241 161t316.5 59.5q323 0 516.5 -191.5t193.5 -504.5q0 -218 -85 -333.5t-210 -115.5q-85 0 -142 50t-71 112q-112 -158 -274 -158q-155 0 -249.5 109.5t-94.5 302.5q0 69 12.5 129t43 116t78 95t121.5 62.5t169 23.5q182 0 340 -84 v-483q0 -121 76 -121q49 0 83.5 82t34.5 215q0 255 -140.5 402t-401.5 147q-188 0 -325.5 -80.5t-205 -213.5t-67.5 -300q0 -130 46 -236t123 -172t173 -101.5t200 -35.5q201 0 334 98l70 -133q-87 -55 -178 -83t-222 -28q-146 0 -274 46t-225 130.5t-153 214.5t-56 289z M670 680q0 -123 45 -182.5t116 -59.5q84 0 136.5 69.5t52.5 188.5v209q-58 21 -129 21q-117 0 -169 -60.5t-52 -185.5z" />
<glyph unicode="A" horiz-adv-x="1290" d="M12 0l498 1380h270l498 -1380h-279l-104 309h-500l-104 -309h-279zM473 530h344l-67 207l-103 353h-4l-102 -353z" />
<glyph unicode="B" horiz-adv-x="1286" d="M143 0v1380h562q225 0 338.5 -98.5t113.5 -271.5q0 -97 -54 -169.5t-130 -109.5q107 -31 173 -114.5t66 -213.5q0 -182 -129 -292.5t-387 -110.5h-553zM401 219h291q123 0 192.5 53t69.5 146q0 91 -69.5 138.5t-198.5 47.5h-285v-385zM401 819h306q90 0 143 43.5 t53 132.5q0 78 -53 122t-145 44h-304v-342z" />
<glyph unicode="C" horiz-adv-x="1193" d="M74 690q0 153 43.5 283t125.5 226.5t208.5 151t283.5 54.5q218 0 389 -92l-65 -203q-147 78 -303 78q-204 0 -310 -130t-106 -368q0 -237 107 -367t309 -130q150 0 315 86l62 -205q-171 -99 -398 -99q-157 0 -283.5 54.5t-208.5 151t-125.5 226.5t-43.5 283z" />
<glyph unicode="D" horiz-adv-x="1357" d="M143 0v1380h430q344 0 525.5 -175.5t181.5 -508.5q0 -343 -180.5 -519.5t-526.5 -176.5h-430zM410 229h163q211 0 326 114t115 353t-114 347t-327 108h-163v-922z" />
<glyph unicode="E" horiz-adv-x="1134" d="M143 0v1380h897v-225h-639v-338h600v-225h-600v-367h652v-225h-910z" />
<glyph unicode="F" horiz-adv-x="1085" d="M143 0v1380h881v-225h-623v-352h584v-230h-584v-573h-258z" />
<glyph unicode="G" horiz-adv-x="1345" d="M74 676q0 341 186.5 535t509.5 194q221 0 397 -92l-65 -203q-147 78 -311 78q-215 0 -333 -130t-118 -382q0 -214 100 -345.5t254 -131.5q117 0 194 74t77 212v82h-267v221h525v-788h-230l-28 162q-103 -180 -320 -180q-255 0 -413 191t-158 503z" />
<glyph unicode="H" horiz-adv-x="1380" d="M143 0v1380h267v-561h561v561h266v-1380h-266v590h-561v-590h-267z" />
<glyph unicode="I" horiz-adv-x="552" d="M143 0v1380h267v-1380h-267z" />
<glyph unicode="J" horiz-adv-x="825" d="M12 53l64 215q95 -63 215 -63q67 0 99 47.5t32 155.5v972h266v-972q0 -219 -99 -326t-278 -107q-84 0 -166.5 22.5t-132.5 55.5z" />
<glyph unicode="K" horiz-adv-x="1269" d="M143 0v1380h267v-1380h-267zM473 645v168l504 567h299l-571 -647l585 -733h-307z" />
<glyph unicode="L" horiz-adv-x="1064" d="M143 0v1380l267 2v-1153h610v-229h-877z" />
<glyph unicode="M" horiz-adv-x="1658" d="M143 0v1380h299l279 -635q84 -188 106 -344h4q21 152 107 344l279 635h299v-1380h-259v676q0 185 39 397h-6q-54 -201 -119 -356l-217 -506h-249l-218 506q-62 148 -118 356h-7q39 -212 39 -397v-676h-258z" />
<glyph unicode="N" horiz-adv-x="1396" d="M143 0v1380h287l451 -782q91 -153 135 -287h6q-35 175 -35 314v755h266v-1380h-266l-471 782q-91 153 -135 287h-6q35 -175 35 -313v-756h-267z" />
<glyph unicode="O" horiz-adv-x="1437" d="M74 690q0 154 41.5 283.5t120.5 226t203 151t280 54.5t280 -54.5t203 -151t120.5 -226t41.5 -283.5t-41.5 -283.5t-120.5 -226t-203 -151t-280 -54.5t-280 54.5t-203 151t-120.5 226t-41.5 283.5zM340 690q0 -237 97.5 -367t281.5 -130t281.5 130t97.5 367t-97.5 367.5 t-281.5 130.5t-281.5 -130.5t-97.5 -367.5z" />
<glyph unicode="P" horiz-adv-x="1191" d="M143 0v1380h498q221 0 351 -126t130 -318q0 -196 -135 -325.5t-358 -129.5h-219v-481h-267zM410 711h219q106 0 166.5 60.5t60.5 164.5q0 100 -56 157.5t-159 57.5h-231v-440z" />
<glyph unicode="Q" horiz-adv-x="1437" d="M74 690q0 154 41.5 283.5t120.5 226t203 151t280 54.5t280 -54.5t203 -151t120.5 -226t41.5 -283.5q0 -265 -119 -450t-344 -242q-16 -36 -51.5 -71.5t-69.5 -53.5h387v-197h-751v197h43q149 0 182 107q-184 16 -313.5 114t-191.5 250t-62 346zM340 690q0 -237 97.5 -367 t281.5 -130t281.5 130t97.5 367t-97.5 367.5t-281.5 130.5t-281.5 -130.5t-97.5 -367.5z" />
<glyph unicode="R" horiz-adv-x="1230" d="M143 0v1380h519q231 0 363 -121.5t132 -306.5q0 -139 -79 -241t-210 -148l326 -563h-285l-297 516h-202v-516h-267zM410 745h254q106 0 166.5 55t60.5 152q0 93 -57 146t-170 53h-254v-406z" />
<glyph unicode="S" horiz-adv-x="1103" d="M70 80l67 217q175 -98 352 -98q123 0 200 47.5t77 140.5q0 34 -16.5 63.5t-32 46.5t-61.5 39t-64 28.5t-79 27.5q-19 7 -28 10q-44 14 -76.5 26t-78 33t-78 43t-67.5 55t-56.5 70.5t-36 88t-14.5 108.5q0 80 28.5 147.5t85.5 120t152.5 82t220.5 29.5q222 0 400 -90 l-68 -205q-159 72 -317 72q-119 0 -180.5 -41.5t-61.5 -110.5q0 -36 15.5 -66.5t38 -51t61 -40.5t69 -31.5t78.5 -27.5q50 -17 86 -30.5t84 -36t81 -45t68.5 -55.5t57 -70t35.5 -86.5t14 -106.5q0 -199 -143 -303.5t-373 -104.5q-257 0 -440 105z" />
<glyph unicode="T" horiz-adv-x="1064" d="M4 1151v229h1057v-229l-395 4v-1155h-267v1155z" />
<glyph unicode="U" horiz-adv-x="1384" d="M137 561v819h266v-821q0 -181 75.5 -273.5t213.5 -92.5t213.5 92.5t75.5 273.5v821h266v-819q0 -293 -144.5 -439.5t-410.5 -146.5t-410.5 146.5t-144.5 439.5z" />
<glyph unicode="V" horiz-adv-x="1277" d="M16 1380h283l236 -737l102 -373h4l102 373l236 737h283l-484 -1380h-278z" />
<glyph unicode="W" horiz-adv-x="1845" d="M37 1380h270l121 -561q21 -109 43 -277.5t29 -320.5h6q20 165 50.5 327.5t55.5 235.5l185 596h252l184 -596q25 -73 55.5 -235.5t50.5 -327.5h7q7 160 28.5 333.5t42.5 264.5l121 561h270l-315 -1380h-266l-219 723q-15 50 -29 120.5t-31 174t-22 131.5h-6 q-5 -28 -22 -131.5t-31 -174t-29 -120.5l-220 -723h-266z" />
<glyph unicode="X" horiz-adv-x="1284" d="M8 0l486 715l-453 665h297l301 -477h4l303 477h297l-455 -665l488 -715h-293l-340 528h-4l-338 -528h-293z" />
<glyph unicode="Y" horiz-adv-x="1220" d="M16 1380h289l307 -565l303 565h289l-461 -792v-588h-266v588z" />
<glyph unicode="Z" horiz-adv-x="1140" d="M66 0v164l655 995l-602 -4v225h932v-163l-654 -992l662 4v-229h-993z" />
<glyph unicode="[" horiz-adv-x="606" d="M143 -242v1643h443v-176h-197v-1291h197v-176h-443z" />
<glyph unicode="\" horiz-adv-x="813" d="M0 1380h233l580 -1462h-233z" />
<glyph unicode="]" horiz-adv-x="606" d="M20 -66h197v1291h-197v176h443v-1643h-443v176z" />
<glyph unicode="^" horiz-adv-x="1163" d="M61 565l414 815h213l414 -815h-279l-241 543l-242 -543h-279z" />
<glyph unicode="_" horiz-adv-x="919" d="M0 -113h920v-209h-920v209z" />
<glyph unicode="`" horiz-adv-x="675" d="M-80 1313l137 196l355 -301l-72 -110z" />
<glyph unicode="a" horiz-adv-x="1042" d="M66 279q0 182 116 263t336 81h139v32q0 158 -180 158q-150 0 -291 -82l-57 180q67 45 167.5 74t211.5 29q203 0 303 -96t100 -277v-641h-225l-29 129q-99 -154 -284 -154q-130 0 -218.5 83.5t-88.5 220.5zM311 287q0 -55 32.5 -89t82.5 -34q101 0 166 70t65 167v50h-141 q-98 0 -151.5 -43t-53.5 -121z" />
<glyph unicode="b" horiz-adv-x="1169" d="M135 0v1380h262v-520q46 60 131 107t181 47q126 0 215.5 -72.5t130.5 -184t41 -247.5q0 -247 -118 -391t-290 -144q-105 0 -172.5 41.5t-118.5 112.5l-28 -129h-234zM397 465q0 -128 59 -204.5t154 -76.5q101 0 162.5 78.5t61.5 247.5q0 138 -56.5 216.5t-150.5 78.5 q-126 0 -230 -131v-209z" />
<glyph unicode="c" horiz-adv-x="946" d="M72 496q0 109 31.5 202t93 164t159.5 111.5t224 40.5q175 0 309 -80l-55 -182q-106 61 -236 61q-264 0 -264 -317q0 -151 63.5 -235.5t188.5 -84.5q139 0 262 66l57 -187q-134 -80 -327 -80q-123 0 -220.5 41t-159 112.5t-94 165t-32.5 202.5z" />
<glyph unicode="d" horiz-adv-x="1169" d="M74 498q0 104 27 196.5t77.5 164t129.5 113.5t177 42q176 0 287 -154v520h262v-1380h-233l-29 129q-50 -70 -115.5 -112t-160.5 -42q-183 0 -302.5 141t-119.5 382zM336 498q0 -161 61.5 -237.5t161.5 -76.5q95 0 154 76.5t59 204.5v209q-87 131 -213 131 q-96 0 -159.5 -82t-63.5 -225z" />
<glyph unicode="e" horiz-adv-x="1042" d="M72 498q0 109 29 201t86 163.5t150.5 111.5t213.5 40q196 0 308 -117.5t112 -304.5q0 -97 -29 -186h-612q22 -116 96 -173t178 -57q132 0 250 62l57 -183q-138 -80 -336 -80q-248 0 -375.5 139.5t-127.5 383.5zM324 559h401v27q0 237 -172 237q-98 0 -158 -70t-71 -194z " />
<glyph unicode="f" horiz-adv-x="724" d="M16 805v184h152v64q0 173 83 262.5t263 89.5q137 0 240 -57l-54 -158q-46 27 -120 27q-83 0 -119.5 -41.5t-36.5 -124.5v-62h272v-184h-272v-805h-256v805h-152z" />
<glyph unicode="g" horiz-adv-x="1169" d="M74 510q0 102 27 192t77.5 160t129.5 111t177 41q176 0 287 -154l29 129h233v-909q0 -129 -38 -226t-107 -155t-157.5 -86.5t-196.5 -28.5q-113 0 -217.5 28.5t-174.5 74.5l66 202q134 -86 303 -86q264 0 264 265v86q-110 -154 -280 -154q-182 0 -302 138.5t-120 371.5z M336 510q0 -156 61.5 -228.5t161.5 -72.5q96 0 154.5 71t58.5 197v197q-87 131 -213 131q-96 0 -159.5 -78.5t-63.5 -216.5z" />
<glyph unicode="h" horiz-adv-x="1179" d="M135 0v1380h262v-520q56 63 143 108.5t195 45.5q140 0 227 -104.5t87 -286.5v-623h-263v614q0 96 -35 143.5t-112 47.5q-67 0 -131.5 -38t-110.5 -93v-674h-262z" />
<glyph unicode="i" horiz-adv-x="540" d="M113 1257q0 63 42.5 105.5t114.5 42.5t115 -42.5t43 -105.5q0 -62 -42.5 -104.5t-115.5 -42.5q-72 0 -114.5 42t-42.5 105zM139 0v989h262v-989h-262z" />
<glyph unicode="j" horiz-adv-x="540" d="M-131 -354l55 184q56 -33 129 -33q45 0 65.5 27t20.5 96v1069h262v-1050q0 -357 -290 -357q-141 0 -242 64zM113 1257q0 63 42.5 105.5t114.5 42.5t115 -42.5t43 -105.5q0 -62 -42.5 -104.5t-115.5 -42.5q-72 0 -114.5 42t-42.5 105z" />
<glyph unicode="k" horiz-adv-x="1069" d="M135 0v1380h262v-1380h-262zM455 473v148l331 368h293l-401 -442l412 -547h-283l-143 190q-141 183 -209 283z" />
<glyph unicode="l" horiz-adv-x="540" d="M139 0v1380h262v-1380h-262z" />
<glyph unicode="m" horiz-adv-x="1673" d="M135 0v989h227l29 -129q138 154 301 154q96 0 159.5 -46.5t88.5 -133.5q160 180 328 180q134 0 204 -92t70 -265v-657h-256v635q0 87 -21 128.5t-83 41.5q-64 0 -120 -36t-95 -95v-17v-657h-256v635q0 86 -21.5 128t-83.5 42q-64 0 -120 -36t-95 -95v-674h-256z" />
<glyph unicode="n" horiz-adv-x="1175" d="M135 0v989h234l28 -129q56 62 141 108t187 46q148 0 233.5 -103.5t85.5 -287.5v-623h-262v614q0 96 -33.5 143.5t-109.5 47.5q-67 0 -131.5 -38t-110.5 -93v-674h-262z" />
<glyph unicode="o" horiz-adv-x="1134" d="M72 496q0 109 31 202t91 164t155.5 111.5t217.5 40.5t218 -40.5t156 -111.5t91 -164t31 -202t-31 -202.5t-91 -165t-156 -112.5t-218 -41t-218 41t-155.5 112.5t-90.5 165t-31 202.5zM334 496q0 -152 58.5 -236t174.5 -84t175 84.5t59 235.5t-59 234t-175 83t-174.5 -83 t-58.5 -234z" />
<glyph unicode="p" horiz-adv-x="1169" d="M135 -391v1380h234l28 -129q46 60 131 107t181 47q126 0 215.5 -72.5t130.5 -184t41 -247.5q0 -247 -118 -391t-290 -144q-105 0 -172.5 41.5t-118.5 112.5v-520h-262zM397 465q0 -128 59 -204.5t154 -76.5q101 0 162.5 78.5t61.5 247.5q0 138 -56.5 216.5t-150.5 78.5 q-126 0 -230 -131v-209z" />
<glyph unicode="q" horiz-adv-x="1169" d="M74 498q0 104 27 196.5t77.5 164t129.5 113.5t177 42q176 0 287 -154l29 129h233v-1380h-262v520q-50 -70 -115.5 -112t-160.5 -42q-183 0 -302.5 141t-119.5 382zM336 498q0 -161 61.5 -237.5t161.5 -76.5q95 0 154 76.5t59 204.5v209q-87 131 -213 131 q-96 0 -159.5 -82t-63.5 -225z" />
<glyph unicode="r" horiz-adv-x="790" d="M135 0v989h230l32 -145q83 170 238 170q87 0 143 -53l-55 -238q-52 43 -137 43q-59 0 -110 -27t-79 -80v-659h-262z" />
<glyph unicode="s" horiz-adv-x="913" d="M74 51l59 197q136 -70 289 -70q162 0 162 96q0 55 -48 86t-149 62q-70 20 -120 42.5t-94 57.5t-66.5 86.5t-22.5 118.5q0 133 104.5 210t284.5 77q204 0 340 -72l-59 -192q-119 61 -267 61q-147 0 -147 -84q0 -41 35 -65.5t110 -51.5q93 -31 152.5 -59.5t108.5 -68 t71.5 -92.5t22.5 -124q0 -129 -107.5 -210t-300.5 -81q-209 0 -358 76z" />
<glyph unicode="t" horiz-adv-x="757" d="M16 805v184h156l61 283h191v-283h281v-184h-281v-504q0 -61 24.5 -89t75.5 -28q67 0 135 47l54 -190q-104 -66 -234 -66q-164 0 -237.5 79.5t-73.5 248.5v502h-152z" />
<glyph unicode="u" horiz-adv-x="1157" d="M131 350v639h262v-631q0 -92 37.5 -133t116.5 -41q113 0 213 131v674h262v-989h-234l-28 129q-39 -61 -117.5 -107.5t-167.5 -46.5q-166 0 -255 95.5t-89 279.5z" />
<glyph unicode="v" horiz-adv-x="1007" d="M16 989h267l143 -424l76 -332h4l74 332l145 424h266l-352 -989h-270z" />
<glyph unicode="w" horiz-adv-x="1454" d="M29 989h262l80 -401q25 -114 35 -357h8q27 223 63 344l125 414h250l125 -414q36 -121 63 -344h9q10 249 34 357l80 401h262l-233 -989h-264l-146 461q-42 134 -53 311h-4q-11 -177 -53 -311l-146 -461h-264z" />
<glyph unicode="x" horiz-adv-x="1048" d="M25 0l356 512l-338 477h276l197 -317h4l193 317h276l-332 -477l367 -512h-279l-223 352h-4l-215 -352h-278z" />
<glyph unicode="y" horiz-adv-x="1157" d="M131 375v614h262v-606q0 -92 37.5 -133t116.5 -41q113 0 213 131v649h262v-909q0 -129 -37 -226t-104.5 -155t-155.5 -86.5t-195 -28.5q-114 0 -214.5 26.5t-170.5 72.5l66 202q128 -82 287 -82q133 0 199.5 61t66.5 204v86q-38 -62 -118 -108t-171 -46q-166 0 -255 95.5 t-89 279.5z" />
<glyph unicode="z" horiz-adv-x="937" d="M70 0v135l454 670h-418v184h738v-135l-455 -670h471v-184h-790z" />
<glyph unicode="{" horiz-adv-x="671" d="M82 485v189q95 0 138.5 28.5t43.5 98.5q0 45 -28.5 150.5t-28.5 166.5q0 140 91 211.5t265 71.5h68v-176h-62q-64 0 -91 -36t-27 -108q0 -51 17 -147t17 -141q0 -82 -40.5 -136.5t-118.5 -74.5v-4q78 -20 118.5 -74.5t40.5 -136.5q0 -45 -17 -141.5t-17 -147.5 q0 -72 27 -108t91 -36h62v-176h-68q-174 0 -265 71.5t-91 211.5q0 61 28.5 166.5t28.5 150.5q0 70 -43.5 98.5t-138.5 28.5z" />
<glyph unicode="|" horiz-adv-x="573" d="M164 -410v1995h246v-1995h-246z" />
<glyph unicode="}" horiz-adv-x="671" d="M41 -66h61q64 0 91.5 36t27.5 108q0 51 -17.5 147.5t-17.5 141.5q0 82 41 136.5t119 74.5v4q-78 20 -119 74.5t-41 136.5q0 45 17.5 141t17.5 147q0 72 -27.5 108t-91.5 36h-61v176h68q174 0 265 -71.5t91 -211.5q0 -61 -28.5 -166.5t-28.5 -150.5q0 -70 43.5 -98.5 t138.5 -28.5v-189q-95 0 -138.5 -28.5t-43.5 -98.5q0 -45 28.5 -150.5t28.5 -166.5q0 -140 -91 -211.5t-265 -71.5h-68v176z" />
<glyph unicode="~" horiz-adv-x="1153" d="M74 610q109 242 323 242q53 0 106.5 -22.5t90.5 -50t85.5 -50t92.5 -22.5q54 0 96.5 36.5t87.5 108.5l123 -125q-109 -242 -323 -242q-52 0 -106 23t-92.5 50t-87 50t-89.5 23q-53 0 -96 -36.5t-88 -109.5z" />
<glyph horiz-adv-x="1024" />
<glyph unicode="&#xa0;" />
<glyph unicode="&#xa1;" horiz-adv-x="557" d="M113 1012q0 66 45 112.5t121 46.5t120.5 -46.5t44.5 -112.5t-44.5 -113t-120.5 -47t-121 47t-45 113zM143 102l45 646h181l45 -646v-338h-271v338z" />
<glyph unicode="&#xa2;" horiz-adv-x="1208" d="M170 496q0 209 119.5 351.5t339.5 162.5v184h131v-184q137 -15 252 -80l-56 -182q-87 49 -196 61v-631q110 12 211 68l57 -187q-107 -62 -268 -79v-185h-131v185q-144 11 -249.5 84t-157.5 184.5t-52 247.5zM432 496q0 -129 50.5 -210t146.5 -104v621q-197 -46 -197 -307 z" />
<glyph unicode="&#xa3;" horiz-adv-x="1208" d="M106 0v229h105q68 32 118 98.5t50 123.5q0 74 -37 153h-195v131h125q-36 68 -54.5 121t-18.5 113q0 170 137.5 277.5t333.5 107.5q118 0 190 -19t170 -67l-65 -211q-105 67 -256 67q-105 0 -162.5 -49.5t-57.5 -126.5q0 -54 15.5 -102t46.5 -111h321v-131h-264 q27 -70 27 -135q0 -59 -39 -123t-96 -117h622v-229h-1016z" />
<glyph unicode="&#xa4;" horiz-adv-x="1191" d="M164 340l112 121q-65 103 -65 211t65 211l-112 121l106 106l117 -119q98 70 209 70t209 -70l117 119l106 -106l-113 -121q66 -104 66 -211t-66 -211l113 -121l-106 -107l-117 119q-97 -69 -209 -69t-209 69l-117 -119zM365 672q0 -104 68 -173t163 -69t163 69t68 173 t-67.5 172.5t-163.5 68.5t-163.5 -68.5t-67.5 -172.5z" />
<glyph unicode="&#xa5;" horiz-adv-x="1208" d="M51 1331h289l268 -557l260 557h289l-346 -616h236v-131h-308v-123h308v-131h-308v-330h-266v330h-307v131h307v123h-307v131h235z" />
<glyph unicode="&#xa6;" horiz-adv-x="573" d="M164 -358v718h246v-718h-246zM164 662v718h246v-718h-246z" />
<glyph unicode="&#xa7;" horiz-adv-x="1208" d="M162 -39l59 184q137 -67 303 -67q101 0 172.5 36.5t71.5 86.5q0 14 -3 26t-11 23t-14 19t-21 16.5t-23.5 13.5t-28.5 12.5t-28.5 10.5t-32.5 11t-31 11q-39 10 -70.5 19.5t-75.5 26.5t-78.5 35.5t-70.5 46t-59.5 58t-39 71.5t-15.5 87q0 139 100 199q-65 79 -65 190 q0 149 120 238.5t324 89.5q169 0 356 -90l-59 -185q-127 70 -283 70q-94 0 -141 -34.5t-47 -88.5q0 -49 50.5 -79.5t142.5 -59.5q12 -4 52 -18t56.5 -20t53.5 -21t55 -25t48.5 -28t46.5 -33.5t37 -38.5t31 -46.5t17.5 -53t7.5 -62.5q0 -134 -102 -195q69 -83 69 -196 q0 -144 -137 -237t-360 -93q-94 0 -195.5 24.5t-181.5 65.5zM424 709q0 -35 27 -63.5t73.5 -48t90 -32.5t96.5 -25.5t73 -19.5l4 4l4 4l3.5 3.5t3.5 4l3 4.5t2.5 5t1.5 5.5t1.5 6.5t1 7t0.5 9q0 32 -28 60t-74.5 48t-91 34t-95 28t-69.5 21q-27 -22 -27 -55z" />
<glyph unicode="&#xa8;" horiz-adv-x="675" d="M-18 1257q0 54 37 91.5t100 37.5t100 -37.5t37 -91.5t-37 -91.5t-100 -37.5t-100 37.5t-37 91.5zM420 1257q0 54 37 91.5t100 37.5t100 -37.5t37 -91.5t-37 -91.5t-100 -37.5t-100 37.5t-37 91.5z" />
<glyph unicode="&#xa9;" horiz-adv-x="1449" d="M82 690q0 131 49 249.5t133 205t204.5 137.5t256.5 51q180 0 328 -86.5t231.5 -234t83.5 -322.5t-83.5 -322.5t-231.5 -234t-328 -86.5q-136 0 -256.5 51t-204.5 137.5t-133 205t-49 249.5zM217 690q0 -145 66 -265.5t183 -190.5t259 -70t259 70t183 190.5t66 265.5 t-66 265.5t-183 191t-259 70.5t-259 -70.5t-183 -191t-66 -265.5zM389 688q0 162 97.5 264.5t273.5 102.5q124 0 215 -58l-37 -108q-83 45 -178 45q-103 0 -155 -66t-52 -180q0 -115 51.5 -180.5t157.5 -65.5q104 0 186 54l33 -113q-94 -61 -231 -61q-171 0 -266 103 t-95 263z" />
<glyph unicode="&#xaa;" horiz-adv-x="747" d="M41 823q0 127 88 189.5t248 62.5h110q0 65 -34.5 98t-92.5 33q-110 0 -235 -61l-45 131q143 76 287 76q150 0 224.5 -73t74.5 -206v-459h-146l-20 105q-36 -56 -84.5 -87.5t-128.5 -31.5q-108 0 -177 56.5t-69 166.5zM225 831q0 -88 94 -88q71 0 119.5 49.5t48.5 118.5 v31h-110q-74 0 -113 -28.5t-39 -82.5z" />
<glyph unicode="&#xab;" horiz-adv-x="1046" d="M41 496l262 368h252l-260 -368l260 -369h-252zM471 496l262 368h252l-260 -368l260 -369h-252z" />
<glyph unicode="&#xac;" horiz-adv-x="1058" d="M61 569v197h895v-535h-245v338h-650z" />
<glyph unicode="&#xad;" horiz-adv-x="663" d="M20 412v200h623v-200h-623z" />
<glyph unicode="&#xae;" horiz-adv-x="1101" d="M82 940q0 195 132.5 328t336.5 133t336.5 -133t132.5 -328t-132.5 -328t-336.5 -133t-336.5 133t-132.5 328zM193 940q0 -159 98 -264t260 -105t260 105t98 264t-98 264t-260 105t-260 -105t-98 -264zM373 676v516h202q193 0 193 -160q0 -51 -34 -93.5t-81 -53.5 l125 -209h-121l-108 192h-66v-192h-110zM483 958h88q88 0 88 74q0 36 -19.5 52t-66.5 16h-90v-142z" />
<glyph unicode="&#xaf;" horiz-adv-x="675" d="M16 1165v174h643v-174h-643z" />
<glyph unicode="&#xb0;" horiz-adv-x="733" d="M74 1128q0 117 82 197t211 80q128 0 210 -80t82 -197t-81.5 -196.5t-210.5 -79.5t-211 79.5t-82 196.5zM252 1128q0 -54 33 -90.5t82 -36.5t81.5 36.5t32.5 90.5t-32.5 90.5t-81.5 36.5t-82 -36.5t-33 -90.5z" />
<glyph unicode="&#xb1;" horiz-adv-x="1208" d="M154 0v147h901v-147h-901zM154 539v209h325v309h250v-309h326v-209h-326v-310h-250v310h-325z" />
<glyph unicode="&#xb2;" horiz-adv-x="645" d="M41 614v131l178 177q72 72 106.5 119.5t34.5 88.5q0 30 -19.5 43t-66.5 13q-93 0 -172 -39l-49 147q67 31 123.5 46.5t134.5 15.5q126 0 193 -55.5t67 -145.5q0 -24 -6 -48.5t-11.5 -42.5t-22 -43.5t-24 -37t-32 -38.5t-30.5 -33.5t-35.5 -35.5t-32.5 -32l-66 -56h289 v-174h-559z" />
<glyph unicode="&#xb3;" horiz-adv-x="641" d="M20 670l60 159q95 -59 205 -59q100 0 100 74q0 71 -86 71h-131v152h121q36 0 57 15t21 44q0 62 -99 62q-77 0 -180 -53l-59 151q130 70 256 70q141 0 213.5 -57t72.5 -148q0 -53 -31.5 -94.5t-76.5 -55.5q57 -17 93 -66t36 -106q0 -102 -76 -164.5t-199 -62.5 q-164 0 -297 68z" />
<glyph unicode="&#xb4;" horiz-adv-x="675" d="M264 1208l354 301l138 -196l-420 -215z" />
<glyph unicode="&#xb5;" horiz-adv-x="1161" d="M135 -410v1399h262v-598q0 -97 46 -156t130 -59q44 0 95 40t96 99v674h262v-989h-233l-29 129q-33 -67 -87.5 -110.5t-117.5 -43.5q-98 0 -162 50v-435h-262z" />
<glyph unicode="&#xb6;" horiz-adv-x="935" d="M61 999q0 174 114.5 277.5t279.5 103.5h428v-159h-144q-44 0 -60.5 -24t-16.5 -71v-1224h-218v725q-74 0 -141.5 24t-122 69t-87 117.5t-32.5 161.5z" />
<glyph unicode="&#xb7;" horiz-adv-x="536" d="M102 530q0 66 45 113t121 47t121 -47t45 -113t-45 -112.5t-121 -46.5t-121 46.5t-45 112.5z" />
<glyph unicode="&#xb8;" horiz-adv-x="675" d="M68 -373l213 287h161l-102 -287h-272z" />
<glyph unicode="&#xb9;" horiz-adv-x="624" d="M66 614v170h159v369l-131 -41v160l199 69h149v-557h142v-170h-518z" />
<glyph unicode="&#xba;" horiz-adv-x="823" d="M53 979q0 167 91 271t268 104t267.5 -104t90.5 -271q0 -170 -90.5 -274.5t-267.5 -104.5t-268 104.5t-91 274.5zM238 979q0 -109 42.5 -171.5t131.5 -62.5t132.5 62.5t43.5 171.5q0 105 -43.5 167t-132.5 62q-88 0 -131 -62t-43 -167z" />
<glyph unicode="&#xbb;" horiz-adv-x="1046" d="M61 127l261 369l-261 368h252l262 -368l-262 -369h-252zM492 127l260 369l-260 368h251l263 -368l-263 -369h-251z" />
<glyph unicode="&#xbc;" horiz-adv-x="1589" d="M76 614v170h160v369l-132 -41v160l199 69h150v-557h141v-170h-518zM324 0l751 1352h244l-752 -1352h-243zM954 125v137l338 465h183v-444h94v-158h-94v-125h-205v125h-316zM1122 283h150v209z" />
<glyph unicode="&#xbd;" horiz-adv-x="1589" d="M76 614v170h160v369l-132 -41v160l199 69h150v-557h141v-170h-518zM324 0l751 1352h244l-752 -1352h-243zM963 0v131l178 176q71 71 106 119.5t35 89.5q0 30 -19.5 42.5t-66.5 12.5q-61 0 -160 -45l-49 148q5 2 26 12t27.5 12.5t25.5 10.5t29 11t29 8.5t33.5 7t34.5 3.5 t41 2q126 0 193 -55t67 -145q0 -24 -6 -48.5t-11.5 -42.5t-22.5 -43.5t-24.5 -37.5t-32 -39t-30.5 -33.5t-35.5 -35.5t-32.5 -32l-65 -55h289v-174h-559z" />
<glyph unicode="&#xbe;" horiz-adv-x="1589" d="M41 670l59 159q95 -59 205 -59q101 0 101 74q0 71 -87 71h-131v152h121q36 0 57 15t21 44q0 62 -98 62q-77 0 -180 -53l-60 151q130 70 256 70q141 0 214 -57t73 -148q0 -53 -32 -94.5t-77 -55.5q57 -17 93 -66t36 -106q0 -103 -75.5 -165t-198.5 -62q-164 0 -297 68z M324 0l751 1352h244l-752 -1352h-243zM954 125v137l338 465h183v-444h94v-158h-94v-125h-205v125h-316zM1122 283h150v209z" />
<glyph unicode="&#xbf;" horiz-adv-x="1026" d="M102 -53q0 59 19 112t48.5 92.5t66 76t73 71t66 70t48.5 80.5t19 94q0 45 -10 84h225q31 -51 31 -101q0 -70 -33 -133t-80 -111t-93.5 -95t-79.5 -105t-33 -121q0 -67 48 -114.5t144 -47.5q166 0 330 95l63 -205q-187 -107 -401 -107q-222 0 -336.5 99t-114.5 266z M377 854q0 66 45 113t121 47t121 -47t45 -113t-45 -113t-121 -47t-121 47t-45 113z" />
<glyph unicode="&#xc0;" horiz-adv-x="1290" d="M12 0l498 1380h270l498 -1380h-279l-104 309h-500l-104 -309h-279zM399 1714l138 197l354 -301l-72 -111zM473 530h344l-67 207l-103 353h-4l-102 -353z" />
<glyph unicode="&#xc1;" horiz-adv-x="1290" d="M12 0l498 1380h270l498 -1380h-279l-104 309h-500l-104 -309h-279zM399 1609l354 301l138 -196l-420 -215zM473 530h344l-67 207l-103 353h-4l-102 -353z" />
<glyph unicode="&#xc2;" horiz-adv-x="1290" d="M12 0l498 1380h270l498 -1380h-279l-104 309h-500l-104 -309h-279zM295 1505l274 301h152l274 -301h-258l-92 158l-92 -158h-258zM473 530h344l-67 207l-103 353h-4l-102 -353z" />
<glyph unicode="&#xc3;" horiz-adv-x="1290" d="M12 0l498 1380h270l498 -1380h-279l-104 309h-500l-104 -309h-279zM307 1542q0 109 49.5 177.5t139.5 68.5q46 0 89.5 -16t70.5 -35t57 -35t51 -16q38 0 51.5 23t13.5 69h154q0 -111 -49.5 -178.5t-134.5 -67.5q-48 0 -92 16t-70 35t-56 35t-55 16q-67 0 -67 -92h-152z M473 530h344l-67 207l-103 353h-4l-102 -353z" />
<glyph unicode="&#xc4;" horiz-adv-x="1290" d="M12 0l498 1380h270l498 -1380h-279l-104 309h-500l-104 -309h-279zM289 1658q0 54 37 91.5t100 37.5t100 -37.5t37 -91.5t-37 -91.5t-100 -37.5t-100 37.5t-37 91.5zM473 530h344l-67 207l-103 353h-4l-102 -353zM727 1658q0 54 37 91.5t100 37.5t100 -37.5t37 -91.5 t-37 -91.5t-100 -37.5t-100 37.5t-37 91.5z" />
<glyph unicode="&#xc5;" horiz-adv-x="1290" d="M12 0l498 1380h270l498 -1380h-279l-104 309h-500l-104 -309h-279zM434 1697q0 83 61.5 142t149.5 59t149.5 -59t61.5 -142t-61.5 -141.5t-149.5 -58.5t-149.5 58.5t-61.5 141.5zM473 530h344l-67 207l-103 353h-4l-102 -353zM586 1697q0 -33 15 -52t44 -19t44 19t15 52 t-15 52.5t-44 19.5t-44 -19.5t-15 -52.5z" />
<glyph unicode="&#xc6;" horiz-adv-x="1738" d="M12 0l615 1380h1018v-225h-687l95 -338h553v-225h-492l100 -367h443v-225h-658l-77 309h-500l-131 -309h-279zM518 530h344l-51 207l-72 353h-4l-133 -353z" />
<glyph unicode="&#xc7;" horiz-adv-x="1193" d="M74 690q0 153 43.5 283t125.5 226.5t208.5 151t283.5 54.5q218 0 389 -92l-65 -203q-147 78 -303 78q-204 0 -310 -130t-106 -368q0 -237 107 -367t309 -130q150 0 315 86l62 -205q-171 -99 -398 -99q-157 0 -283.5 54.5t-208.5 151t-125.5 226.5t-43.5 283zM410 -373 l213 287h161l-102 -287h-272z" />
<glyph unicode="&#xc8;" horiz-adv-x="1134" d="M143 0v1380h897v-225h-639v-338h600v-225h-600v-367h652v-225h-910zM342 1714l137 196l355 -301l-72 -110z" />
<glyph unicode="&#xc9;" horiz-adv-x="1134" d="M143 0v1380h897v-225h-639v-338h600v-225h-600v-367h652v-225h-910zM342 1610l354 301l138 -197l-420 -215z" />
<glyph unicode="&#xca;" horiz-adv-x="1134" d="M143 0v1380h897v-225h-639v-338h600v-225h-600v-367h652v-225h-910zM238 1505l274 301h152l274 -301h-258l-92 158l-92 -158h-258z" />
<glyph unicode="&#xcb;" horiz-adv-x="1134" d="M143 0v1380h897v-225h-639v-338h600v-225h-600v-367h652v-225h-910zM231 1659q0 54 37.5 91.5t100.5 37.5t100 -37.5t37 -91.5t-37 -91.5t-100 -37.5t-100.5 37.5t-37.5 91.5zM670 1659q0 54 37 91.5t100 37.5t100 -37.5t37 -91.5t-37 -91.5t-100 -37.5t-100 37.5 t-37 91.5z" />
<glyph unicode="&#xcc;" horiz-adv-x="552" d="M31 1714l137 197l354 -301l-71 -111zM143 0v1380h267v-1380h-267z" />
<glyph unicode="&#xcd;" horiz-adv-x="552" d="M33 1610l354 301l137 -197l-420 -215zM143 0v1380h267v-1380h-267z" />
<glyph unicode="&#xce;" horiz-adv-x="552" d="M-72 1505l275 301h151l275 -301h-258l-92 158l-93 -158h-258zM143 0v1380h267v-1380h-267z" />
<glyph unicode="&#xcf;" horiz-adv-x="552" d="M-78 1659q0 54 37 91.5t100 37.5t100.5 -37.5t37.5 -91.5t-37.5 -91.5t-100.5 -37.5t-100 37.5t-37 91.5zM143 0v1380h267v-1380h-267zM360 1659q0 54 37.5 91.5t100.5 37.5t100 -37.5t37 -91.5t-37 -91.5t-100 -37.5t-100.5 37.5t-37.5 91.5z" />
<glyph unicode="&#xd0;" horiz-adv-x="1357" d="M12 575v189h131v616h430q344 0 525.5 -175.5t181.5 -508.5q0 -343 -180.5 -519.5t-526.5 -176.5h-430v575h-131zM410 229h163q211 0 326 114t115 353t-114 347t-327 108h-163v-387h278v-189h-278v-346z" />
<glyph unicode="&#xd1;" horiz-adv-x="1396" d="M143 0v1380h287l451 -782q91 -153 135 -287h6q-35 175 -35 314v755h266v-1380h-266l-471 782q-91 153 -135 287h-6q35 -175 35 -313v-756h-267zM360 1542q0 109 49 177t139 68q58 0 111 -25.5t92.5 -51t65.5 -25.5q38 0 51.5 23t13.5 69h154q0 -111 -49.5 -178.5 t-134.5 -67.5q-48 0 -92 16t-70 35.5t-56 35.5t-55 16q-67 0 -67 -92h-152z" />
<glyph unicode="&#xd2;" horiz-adv-x="1437" d="M74 690q0 154 41.5 283.5t120.5 226t203 151t280 54.5t280 -54.5t203 -151t120.5 -226t41.5 -283.5t-41.5 -283.5t-120.5 -226t-203 -151t-280 -54.5t-280 54.5t-203 151t-120.5 226t-41.5 283.5zM340 690q0 -237 97.5 -367t281.5 -130t281.5 130t97.5 367t-97.5 367.5 t-281.5 130.5t-281.5 -130.5t-97.5 -367.5zM473 1714l137 196l355 -301l-72 -110z" />
<glyph unicode="&#xd3;" horiz-adv-x="1437" d="M74 690q0 154 41.5 283.5t120.5 226t203 151t280 54.5t280 -54.5t203 -151t120.5 -226t41.5 -283.5t-41.5 -283.5t-120.5 -226t-203 -151t-280 -54.5t-280 54.5t-203 151t-120.5 226t-41.5 283.5zM340 690q0 -237 97.5 -367t281.5 -130t281.5 130t97.5 367t-97.5 367.5 t-281.5 130.5t-281.5 -130.5t-97.5 -367.5zM473 1610l354 301l138 -197l-420 -215z" />
<glyph unicode="&#xd4;" horiz-adv-x="1437" d="M74 690q0 154 41.5 283.5t120.5 226t203 151t280 54.5t280 -54.5t203 -151t120.5 -226t41.5 -283.5t-41.5 -283.5t-120.5 -226t-203 -151t-280 -54.5t-280 54.5t-203 151t-120.5 226t-41.5 283.5zM340 690q0 -237 97.5 -367t281.5 -130t281.5 130t97.5 367t-97.5 367.5 t-281.5 130.5t-281.5 -130.5t-97.5 -367.5zM369 1505l274 301h152l274 -301h-258l-92 158l-92 -158h-258z" />
<glyph unicode="&#xd5;" horiz-adv-x="1437" d="M74 690q0 154 41.5 283.5t120.5 226t203 151t280 54.5t280 -54.5t203 -151t120.5 -226t41.5 -283.5t-41.5 -283.5t-120.5 -226t-203 -151t-280 -54.5t-280 54.5t-203 151t-120.5 226t-41.5 283.5zM340 690q0 -237 97.5 -367t281.5 -130t281.5 130t97.5 367t-97.5 367.5 t-281.5 130.5t-281.5 -130.5t-97.5 -367.5zM381 1542q0 109 49 177t139 68q58 0 111 -25.5t92.5 -51t65.5 -25.5q38 0 51.5 23t13.5 69h154q0 -111 -49.5 -178.5t-134.5 -67.5q-48 0 -92 16t-70 35.5t-56 35.5t-55 16q-67 0 -67 -92h-152z" />
<glyph unicode="&#xd6;" horiz-adv-x="1437" d="M74 690q0 154 41.5 283.5t120.5 226t203 151t280 54.5t280 -54.5t203 -151t120.5 -226t41.5 -283.5t-41.5 -283.5t-120.5 -226t-203 -151t-280 -54.5t-280 54.5t-203 151t-120.5 226t-41.5 283.5zM340 690q0 -237 97.5 -367t281.5 -130t281.5 130t97.5 367t-97.5 367.5 t-281.5 130.5t-281.5 -130.5t-97.5 -367.5zM362 1659q0 54 37.5 91.5t100.5 37.5t100 -37.5t37 -91.5t-37 -91.5t-100 -37.5t-100.5 37.5t-37.5 91.5zM801 1659q0 54 37 91.5t100 37.5t100 -37.5t37 -91.5t-37 -91.5t-100 -37.5t-100 37.5t-37 91.5z" />
<glyph unicode="&#xd7;" horiz-adv-x="1208" d="M176 287l260 260l-260 260l168 168l260 -260l260 260l168 -168l-260 -260l260 -260l-168 -168l-260 260l-260 -260z" />
<glyph unicode="&#xd8;" horiz-adv-x="1437" d="M74 690q0 154 41.5 283.5t120.5 226t203 151t280 54.5q178 0 309 -70l78 127h166l-125 -207q217 -196 217 -565q0 -154 -41.5 -283.5t-120.5 -226t-203 -151t-280 -54.5q-172 0 -311 68l-76 -125h-166l125 205q-217 193 -217 567zM340 690q0 -220 84 -348l485 797 q-79 49 -190 49q-184 0 -281.5 -130.5t-97.5 -367.5zM528 240q83 -47 191 -47q184 0 281.5 130t97.5 367q0 220 -84 348z" />
<glyph unicode="&#xd9;" horiz-adv-x="1384" d="M137 561v819h266v-821q0 -181 75.5 -273.5t213.5 -92.5t213.5 92.5t75.5 273.5v821h266v-819q0 -293 -144.5 -439.5t-410.5 -146.5t-410.5 146.5t-144.5 439.5zM446 1714l137 196l355 -301l-72 -110z" />
<glyph unicode="&#xda;" horiz-adv-x="1384" d="M137 561v819h266v-821q0 -181 75.5 -273.5t213.5 -92.5t213.5 92.5t75.5 273.5v821h266v-819q0 -293 -144.5 -439.5t-410.5 -146.5t-410.5 146.5t-144.5 439.5zM446 1610l355 301l137 -197l-420 -215z" />
<glyph unicode="&#xdb;" horiz-adv-x="1384" d="M137 561v819h266v-821q0 -181 75.5 -273.5t213.5 -92.5t213.5 92.5t75.5 273.5v821h266v-819q0 -293 -144.5 -439.5t-410.5 -146.5t-410.5 146.5t-144.5 439.5zM342 1505l274 301h152l274 -301h-258l-92 158l-92 -158h-258z" />
<glyph unicode="&#xdc;" horiz-adv-x="1384" d="M137 561v819h266v-821q0 -181 75.5 -273.5t213.5 -92.5t213.5 92.5t75.5 273.5v821h266v-819q0 -293 -144.5 -439.5t-410.5 -146.5t-410.5 146.5t-144.5 439.5zM336 1659q0 54 37 91.5t100 37.5t100 -37.5t37 -91.5t-37 -91.5t-100 -37.5t-100 37.5t-37 91.5zM774 1659 q0 54 37 91.5t100 37.5t100.5 -37.5t37.5 -91.5t-37.5 -91.5t-100.5 -37.5t-100 37.5t-37 91.5z" />
<glyph unicode="&#xdd;" horiz-adv-x="1220" d="M16 1380h289l307 -565l303 565h289l-461 -792v-588h-266v588zM364 1609l354 301l138 -196l-420 -215z" />
<glyph unicode="&#xde;" horiz-adv-x="1191" d="M143 0v1380h267v-260h231q221 0 351 -122t130 -306q0 -189 -135 -313.5t-358 -124.5h-219v-254h-267zM410 483h219q106 0 166.5 55.5t60.5 153.5q0 93 -56 146t-159 53h-231v-408z" />
<glyph unicode="&#xdf;" horiz-adv-x="1269" d="M133 0v846q0 115 34.5 215t100.5 177.5t170.5 122t235.5 44.5q198 0 329.5 -107.5t131.5 -253.5q0 -118 -62.5 -190.5t-150.5 -91.5q121 -40 197.5 -136t76.5 -243q0 -195 -117.5 -298t-308.5 -103q-182 0 -311 69l39 176q109 -57 235 -57q100 0 153.5 62.5t53.5 179.5 q0 128 -78 196t-225 68h-88v184h135q102 0 152.5 42t50.5 138q0 30 -10.5 59t-33.5 56.5t-67 44.5t-102 17q-285 0 -285 -371v-846h-256z" />
<glyph unicode="&#xe0;" horiz-adv-x="1042" d="M66 279q0 182 116 263t336 81h139v32q0 158 -180 158q-150 0 -291 -82l-57 180q67 45 167.5 74t211.5 29q203 0 303 -96t100 -277v-641h-225l-29 129q-99 -154 -284 -154q-130 0 -218.5 83.5t-88.5 220.5zM274 1313l138 196l354 -301l-72 -110zM311 287q0 -55 32.5 -89 t82.5 -34q101 0 166 70t65 167v50h-141q-98 0 -151.5 -43t-53.5 -121z" />
<glyph unicode="&#xe1;" horiz-adv-x="1042" d="M66 279q0 182 116 263t336 81h139v32q0 158 -180 158q-150 0 -291 -82l-57 180q67 45 167.5 74t211.5 29q203 0 303 -96t100 -277v-641h-225l-29 129q-99 -154 -284 -154q-130 0 -218.5 83.5t-88.5 220.5zM274 1208l355 301l137 -196l-420 -215zM311 287q0 -55 32.5 -89 t82.5 -34q101 0 166 70t65 167v50h-141q-98 0 -151.5 -43t-53.5 -121z" />
<glyph unicode="&#xe2;" horiz-adv-x="1042" d="M66 279q0 182 116 263t336 81h139v32q0 158 -180 158q-150 0 -291 -82l-57 180q67 45 167.5 74t211.5 29q203 0 303 -96t100 -277v-641h-225l-29 129q-99 -154 -284 -154q-130 0 -218.5 83.5t-88.5 220.5zM170 1104l274 301h152l274 -301h-258l-92 158l-92 -158h-258z M311 287q0 -55 32.5 -89t82.5 -34q101 0 166 70t65 167v50h-141q-98 0 -151.5 -43t-53.5 -121z" />
<glyph unicode="&#xe3;" horiz-adv-x="1042" d="M66 279q0 182 116 263t336 81h139v32q0 158 -180 158q-150 0 -291 -82l-57 180q67 45 167.5 74t211.5 29q203 0 303 -96t100 -277v-641h-225l-29 129q-99 -154 -284 -154q-130 0 -218.5 83.5t-88.5 220.5zM182 1141q0 109 49.5 177t139.5 68q46 0 89.5 -16t70.5 -35 t57 -35t51 -16q38 0 52 23t14 69h153q0 -111 -49.5 -178.5t-134.5 -67.5q-48 0 -92 16t-70 35.5t-56 35.5t-55 16q-67 0 -67 -92h-152zM311 287q0 -55 32.5 -89t82.5 -34q101 0 166 70t65 167v50h-141q-98 0 -151.5 -43t-53.5 -121z" />
<glyph unicode="&#xe4;" horiz-adv-x="1042" d="M66 279q0 182 116 263t336 81h139v32q0 158 -180 158q-150 0 -291 -82l-57 180q67 45 167.5 74t211.5 29q203 0 303 -96t100 -277v-641h-225l-29 129q-99 -154 -284 -154q-130 0 -218.5 83.5t-88.5 220.5zM164 1257q0 54 37 91.5t100 37.5t100 -37.5t37 -91.5t-37 -91.5 t-100 -37.5t-100 37.5t-37 91.5zM311 287q0 -55 32.5 -89t82.5 -34q101 0 166 70t65 167v50h-141q-98 0 -151.5 -43t-53.5 -121zM602 1257q0 54 37 91.5t100 37.5t100 -37.5t37 -91.5t-37 -91.5t-100 -37.5t-100 37.5t-37 91.5z" />
<glyph unicode="&#xe5;" horiz-adv-x="1042" d="M66 279q0 182 116 263t336 81h139v32q0 158 -180 158q-150 0 -291 -82l-57 180q67 45 167.5 74t211.5 29q203 0 303 -96t100 -277v-641h-225l-29 129q-99 -154 -284 -154q-130 0 -218.5 83.5t-88.5 220.5zM309 1296q0 83 61.5 142t149.5 59t149.5 -59t61.5 -142 t-61.5 -141.5t-149.5 -58.5t-149.5 58.5t-61.5 141.5zM311 287q0 -55 32.5 -89t82.5 -34q101 0 166 70t65 167v50h-141q-98 0 -151.5 -43t-53.5 -121zM461 1296q0 -33 15 -52t44 -19t44.5 19t15.5 52t-15.5 52.5t-44.5 19.5t-44 -19.5t-15 -52.5z" />
<glyph unicode="&#xe6;" horiz-adv-x="1613" d="M66 279q0 181 119 262.5t339 81.5h146v32q0 158 -187 158q-156 0 -297 -82l-57 180q66 45 170 74t215 29q223 0 309 -150q48 67 127 108.5t183 41.5q195 0 302 -117t107 -305q0 -97 -29 -186h-589q22 -118 90.5 -174t171.5 -56q118 0 239 62l58 -183q-138 -80 -326 -80 q-266 0 -371 215q-51 -99 -151.5 -157t-222.5 -58q-154 0 -250 82.5t-96 221.5zM311 287q0 -54 35 -88.5t86 -34.5q102 0 170 70.5t68 166.5v50h-148q-99 0 -155 -43t-56 -121zM924 559h372v27q0 120 -38 178.5t-123 58.5q-188 0 -211 -264z" />
<glyph unicode="&#xe7;" horiz-adv-x="946" d="M72 496q0 109 31.5 202t93 164t159.5 111.5t224 40.5q175 0 309 -80l-55 -182q-106 61 -236 61q-264 0 -264 -317q0 -151 63.5 -235.5t188.5 -84.5q139 0 262 66l57 -187q-134 -80 -327 -80q-123 0 -220.5 41t-159 112.5t-94 165t-32.5 202.5zM285 -373l213 287h161 l-102 -287h-272z" />
<glyph unicode="&#xe8;" horiz-adv-x="1042" d="M72 498q0 109 29 201t86 163.5t150.5 111.5t213.5 40q196 0 308 -117.5t112 -304.5q0 -97 -29 -186h-612q22 -116 96 -173t178 -57q132 0 250 62l57 -183q-138 -80 -336 -80q-248 0 -375.5 139.5t-127.5 383.5zM274 1313l137 196l355 -301l-72 -110zM324 559h401v27 q0 237 -172 237q-98 0 -158 -70t-71 -194z" />
<glyph unicode="&#xe9;" horiz-adv-x="1042" d="M72 498q0 109 29 201t86 163.5t150.5 111.5t213.5 40q196 0 308 -117.5t112 -304.5q0 -97 -29 -186h-612q22 -116 96 -173t178 -57q132 0 250 62l57 -183q-138 -80 -336 -80q-248 0 -375.5 139.5t-127.5 383.5zM274 1208l355 301l137 -196l-420 -215zM324 559h401v27 q0 237 -172 237q-98 0 -158 -70t-71 -194z" />
<glyph unicode="&#xea;" horiz-adv-x="1042" d="M72 498q0 109 29 201t86 163.5t150.5 111.5t213.5 40q196 0 308 -117.5t112 -304.5q0 -97 -29 -186h-612q22 -116 96 -173t178 -57q132 0 250 62l57 -183q-138 -80 -336 -80q-248 0 -375.5 139.5t-127.5 383.5zM170 1104l274 301h152l274 -301h-258l-92 158l-92 -158 h-258zM324 559h401v27q0 237 -172 237q-98 0 -158 -70t-71 -194z" />
<glyph unicode="&#xeb;" horiz-adv-x="1042" d="M72 498q0 109 29 201t86 163.5t150.5 111.5t213.5 40q196 0 308 -117.5t112 -304.5q0 -97 -29 -186h-612q22 -116 96 -173t178 -57q132 0 250 62l57 -183q-138 -80 -336 -80q-248 0 -375.5 139.5t-127.5 383.5zM164 1257q0 54 37 91.5t100 37.5t100 -37.5t37 -91.5 t-37 -91.5t-100 -37.5t-100 37.5t-37 91.5zM324 559h401v27q0 237 -172 237q-98 0 -158 -70t-71 -194zM602 1257q0 54 37 91.5t100 37.5t100.5 -37.5t37.5 -91.5t-37.5 -91.5t-100.5 -37.5t-100 37.5t-37 91.5z" />
<glyph unicode="&#xec;" horiz-adv-x="540" d="M24 1313l137 196l355 -301l-72 -110zM139 0v989h262v-989h-262z" />
<glyph unicode="&#xed;" horiz-adv-x="540" d="M27 1208l354 301l137 -196l-420 -215zM139 0v989h262v-989h-262z" />
<glyph unicode="&#xee;" horiz-adv-x="540" d="M-78 1104l274 301h152l274 -301h-258l-92 158l-92 -158h-258zM139 0v989h262v-989h-262z" />
<glyph unicode="&#xef;" horiz-adv-x="540" d="M-84 1257q0 54 37 91.5t100 37.5t100 -37.5t37 -91.5t-37 -91.5t-100 -37.5t-100 37.5t-37 91.5zM139 0v989h262v-989h-262zM354 1257q0 54 37.5 91.5t100.5 37.5t100 -37.5t37 -91.5t-37 -91.5t-100 -37.5t-100.5 37.5t-37.5 91.5z" />
<glyph unicode="&#xf0;" horiz-adv-x="1148" d="M72 467q0 206 137 356t323 150q167 0 277 -119h4q-49 125 -211 264l-207 -96l-51 113l141 67q-86 56 -198 94l88 154q155 -53 297 -160l243 115l58 -113l-197 -92q149 -136 224 -317.5t75 -384.5q0 -235 -136.5 -379t-365.5 -144q-224 0 -362.5 138t-138.5 354zM326 471 q0 -126 66 -210.5t181 -84.5q73 0 133.5 47t91.5 116t31 140q0 128 -66 210.5t-185 82.5q-115 0 -183.5 -85.5t-68.5 -215.5z" />
<glyph unicode="&#xf1;" horiz-adv-x="1175" d="M135 0v989h234l28 -129q56 62 141 108t187 46q148 0 233.5 -103.5t85.5 -287.5v-623h-262v614q0 96 -33.5 143.5t-109.5 47.5q-67 0 -131.5 -38t-110.5 -93v-674h-262zM250 1141q0 109 49 177t139 68q58 0 111 -25.5t92.5 -51t65.5 -25.5q38 0 51.5 23t13.5 69h154 q0 -111 -49.5 -178.5t-134.5 -67.5q-48 0 -92 16t-70 35.5t-56 35.5t-55 16q-67 0 -67 -92h-152z" />
<glyph unicode="&#xf2;" horiz-adv-x="1134" d="M72 496q0 109 31 202t91 164t155.5 111.5t217.5 40.5t218 -40.5t156 -111.5t91 -164t31 -202t-31 -202.5t-91 -165t-156 -112.5t-218 -41t-218 41t-155.5 112.5t-90.5 165t-31 202.5zM321 1313l137 196l355 -301l-72 -110zM334 496q0 -152 58.5 -236t174.5 -84t175 84.5 t59 235.5t-59 234t-175 83t-174.5 -83t-58.5 -234z" />
<glyph unicode="&#xf3;" horiz-adv-x="1134" d="M72 496q0 109 31 202t91 164t155.5 111.5t217.5 40.5t218 -40.5t156 -111.5t91 -164t31 -202t-31 -202.5t-91 -165t-156 -112.5t-218 -41t-218 41t-155.5 112.5t-90.5 165t-31 202.5zM322 1208l354 301l137 -196l-420 -215zM334 496q0 -152 58.5 -236t174.5 -84t175 84.5 t59 235.5t-59 234t-175 83t-174.5 -83t-58.5 -234z" />
<glyph unicode="&#xf4;" horiz-adv-x="1134" d="M72 496q0 109 31 202t91 164t155.5 111.5t217.5 40.5t218 -40.5t156 -111.5t91 -164t31 -202t-31 -202.5t-91 -165t-156 -112.5t-218 -41t-218 41t-155.5 112.5t-90.5 165t-31 202.5zM217 1104l275 301h151l275 -301h-259l-92 158l-92 -158h-258zM334 496 q0 -152 58.5 -236t174.5 -84t175 84.5t59 235.5t-59 234t-175 83t-174.5 -83t-58.5 -234z" />
<glyph unicode="&#xf5;" horiz-adv-x="1134" d="M72 496q0 109 31 202t91 164t155.5 111.5t217.5 40.5t218 -40.5t156 -111.5t91 -164t31 -202t-31 -202.5t-91 -165t-156 -112.5t-218 -41t-218 41t-155.5 112.5t-90.5 165t-31 202.5zM229 1141q0 109 49.5 177t139.5 68q46 0 89.5 -16t70.5 -35t57 -35t51 -16q38 0 52 23 t14 69h153q0 -111 -49.5 -178.5t-134.5 -67.5q-48 0 -91.5 16t-69.5 35.5t-56 35.5t-55 16q-68 0 -68 -92h-152zM334 496q0 -152 58.5 -236t174.5 -84t175 84.5t59 235.5t-59 234t-175 83t-174.5 -83t-58.5 -234z" />
<glyph unicode="&#xf6;" horiz-adv-x="1134" d="M72 496q0 109 31 202t91 164t155.5 111.5t217.5 40.5t218 -40.5t156 -111.5t91 -164t31 -202t-31 -202.5t-91 -165t-156 -112.5t-218 -41t-218 41t-155.5 112.5t-90.5 165t-31 202.5zM211 1257q0 54 37 91.5t100 37.5t100 -37.5t37 -91.5t-37 -91.5t-100 -37.5t-100 37.5 t-37 91.5zM334 496q0 -152 58.5 -236t174.5 -84t175 84.5t59 235.5t-59 234t-175 83t-174.5 -83t-58.5 -234zM649 1257q0 54 37 91.5t100 37.5t100 -37.5t37 -91.5t-37 -91.5t-100 -37.5t-100 37.5t-37 91.5z" />
<glyph unicode="&#xf7;" horiz-adv-x="1208" d="M164 477v209h880v-209h-880zM438 219q0 66 45 113t121 47t121 -47t45 -113t-45 -113t-121 -47t-121 47t-45 113zM438 948q0 66 45 113t121 47t121 -47t45 -113t-45 -113t-121 -47t-121 47t-45 113z" />
<glyph unicode="&#xf8;" horiz-adv-x="1134" d="M72 496q0 109 31 202t91 164t155.5 111.5t217.5 40.5q133 0 224 -45l65 102h166l-115 -178q156 -144 156 -397q0 -109 -31 -202.5t-91 -165t-156 -112.5t-218 -41q-123 0 -223 43l-65 -100h-166l112 176q-153 141 -153 402zM334 496q0 -108 31 -187l309 479 q-45 25 -107 25q-116 0 -174.5 -83t-58.5 -234zM461 201q45 -25 106 -25q116 0 175 84.5t59 235.5q0 108 -31 184z" />
<glyph unicode="&#xf9;" horiz-adv-x="1157" d="M131 350v639h262v-631q0 -92 37.5 -133t116.5 -41q113 0 213 131v674h262v-989h-234l-28 129q-39 -61 -117.5 -107.5t-167.5 -46.5q-166 0 -255 95.5t-89 279.5zM332 1313l137 196l355 -301l-72 -110z" />
<glyph unicode="&#xfa;" horiz-adv-x="1157" d="M131 350v639h262v-631q0 -92 37.5 -133t116.5 -41q113 0 213 131v674h262v-989h-234l-28 129q-39 -61 -117.5 -107.5t-167.5 -46.5q-166 0 -255 95.5t-89 279.5zM332 1208l354 301l137 -196l-420 -215z" />
<glyph unicode="&#xfb;" horiz-adv-x="1157" d="M131 350v639h262v-631q0 -92 37.5 -133t116.5 -41q113 0 213 131v674h262v-989h-234l-28 129q-39 -61 -117.5 -107.5t-167.5 -46.5q-166 0 -255 95.5t-89 279.5zM227 1104l275 301h151l275 -301h-258l-92 158l-93 -158h-258z" />
<glyph unicode="&#xfc;" horiz-adv-x="1157" d="M131 350v639h262v-631q0 -92 37.5 -133t116.5 -41q113 0 213 131v674h262v-989h-234l-28 129q-39 -61 -117.5 -107.5t-167.5 -46.5q-166 0 -255 95.5t-89 279.5zM221 1257q0 54 37 91.5t100 37.5t100.5 -37.5t37.5 -91.5t-37.5 -91.5t-100.5 -37.5t-100 37.5t-37 91.5z M659 1257q0 54 37.5 91.5t100.5 37.5t100 -37.5t37 -91.5t-37 -91.5t-100 -37.5t-100.5 37.5t-37.5 91.5z" />
<glyph unicode="&#xfd;" horiz-adv-x="1157" d="M131 375v614h262v-606q0 -92 37.5 -133t116.5 -41q113 0 213 131v649h262v-909q0 -129 -37 -226t-104.5 -155t-155.5 -86.5t-195 -28.5q-114 0 -214.5 26.5t-170.5 72.5l66 202q128 -82 287 -82q133 0 199.5 61t66.5 204v86q-38 -62 -118 -108t-171 -46q-166 0 -255 95.5 t-89 279.5zM332 1208l354 301l138 -196l-420 -215z" />
<glyph unicode="&#xfe;" horiz-adv-x="1169" d="M135 -391v1771h262v-520q46 60 131 107t181 47q126 0 215.5 -72.5t130.5 -184t41 -247.5q0 -247 -118 -391t-290 -144q-105 0 -172.5 41.5t-118.5 112.5v-520h-262zM397 465q0 -128 59 -204.5t154 -76.5q101 0 162.5 78.5t61.5 247.5q0 138 -56.5 216.5t-150.5 78.5 q-126 0 -230 -131v-209z" />
<glyph unicode="&#xff;" horiz-adv-x="1157" d="M131 375v614h262v-606q0 -92 37.5 -133t116.5 -41q113 0 213 131v649h262v-909q0 -129 -37 -226t-104.5 -155t-155.5 -86.5t-195 -28.5q-114 0 -214.5 26.5t-170.5 72.5l66 202q128 -82 287 -82q133 0 199.5 61t66.5 204v86q-38 -62 -118 -108t-171 -46q-166 0 -255 95.5 t-89 279.5zM221 1257q0 54 37 91.5t100 37.5t100.5 -37.5t37.5 -91.5t-37.5 -91.5t-100.5 -37.5t-100 37.5t-37 91.5zM659 1257q0 54 37.5 91.5t100.5 37.5t100 -37.5t37 -91.5t-37 -91.5t-100 -37.5t-100.5 37.5t-37.5 91.5z" />
<glyph unicode="&#x131;" horiz-adv-x="540" d="M139 0v989h262v-989h-262z" />
<glyph unicode="&#x141;" horiz-adv-x="1064" d="M16 494v192l127 55v639l267 2v-526l295 127v-192l-295 -127v-435h610v-229h-877v549z" />
<glyph unicode="&#x142;" horiz-adv-x="540" d="M14 494v192l129 55v639h267v-524l116 51v-192l-116 -51v-664h-267v549z" />
<glyph unicode="&#x152;" horiz-adv-x="2088" d="M74 690q0 154 40.5 283.5t118.5 226t199.5 151t274.5 54.5q132 0 235 -47.5t160 -128.5v151h893v-225h-639v-338h600v-225h-600v-367h651v-225h-905v152q-151 -177 -404 -177q-150 0 -270 54.5t-196.5 151t-117 226.5t-40.5 283zM340 690q0 -237 97.5 -367t281.5 -130 t281.5 130t97.5 367t-97.5 367.5t-281.5 130.5t-281.5 -130.5t-97.5 -367.5z" />
<glyph unicode="&#x153;" horiz-adv-x="1722" d="M72 496q0 109 31 202t91 164t155.5 111.5t217.5 40.5q222 0 322 -140q57 64 144.5 102t197.5 38q196 0 308 -117.5t112 -304.5q0 -97 -29 -186h-612q22 -116 96 -173t178 -57q132 0 250 62l57 -183q-138 -80 -336 -80q-119 0 -215 38.5t-153 105.5q-44 -68 -125.5 -106 t-194.5 -38q-122 0 -218 41t-155.5 112.5t-90.5 165t-31 202.5zM334 496q0 -150 63.5 -235t180.5 -85q138 0 200 117q-26 85 -26 205q0 111 26 196q-61 119 -200 119q-117 0 -180.5 -84t-63.5 -233zM1004 559h401v27q0 237 -172 237q-98 0 -158 -70t-71 -194z" />
<glyph unicode="&#x160;" horiz-adv-x="1103" d="M70 80l67 217q175 -98 352 -98q123 0 200 47.5t77 140.5q0 34 -16.5 63.5t-32 46.5t-61.5 39t-64 28.5t-79 27.5q-19 7 -28 10q-44 14 -76.5 26t-78 33t-78 43t-67.5 55t-56.5 70.5t-36 88t-14.5 108.5q0 80 28.5 147.5t85.5 120t152.5 82t220.5 29.5q222 0 400 -90 l-68 -205q-159 72 -317 72q-119 0 -180.5 -41.5t-61.5 -110.5q0 -36 15.5 -66.5t38 -51t61 -40.5t69 -31.5t78.5 -27.5q50 -17 86 -30.5t84 -36t81 -45t68.5 -55.5t57 -70t35.5 -86.5t14 -106.5q0 -199 -143 -303.5t-373 -104.5q-257 0 -440 105zM201 1806h258l92 -158 l92 158h258l-274 -301h-152z" />
<glyph unicode="&#x161;" horiz-adv-x="913" d="M74 51l59 197q136 -70 289 -70q162 0 162 96q0 55 -48 86t-149 62q-70 20 -120 42.5t-94 57.5t-66.5 86.5t-22.5 118.5q0 133 104.5 210t284.5 77q204 0 340 -72l-59 -192q-119 61 -267 61q-147 0 -147 -84q0 -41 35 -65.5t110 -51.5q93 -31 152.5 -59.5t108.5 -68 t71.5 -92.5t22.5 -124q0 -129 -107.5 -210t-300.5 -81q-209 0 -358 76zM106 1405h259l92 -158l92 158h258l-275 -301h-151z" />
<glyph unicode="&#x178;" horiz-adv-x="1220" d="M16 1380h289l307 -565l303 565h289l-461 -792v-588h-266v588zM254 1659q0 54 37 91.5t100 37.5t100 -37.5t37 -91.5t-37 -91.5t-100 -37.5t-100 37.5t-37 91.5zM692 1659q0 54 37 91.5t100 37.5t100.5 -37.5t37.5 -91.5t-37.5 -91.5t-100.5 -37.5t-100 37.5t-37 91.5z " />
<glyph unicode="&#x17d;" horiz-adv-x="1140" d="M66 0v164l655 995l-602 -4v225h932v-163l-654 -992l662 4v-229h-993zM219 1806h258l92 -157l93 157h258l-275 -301h-151z" />
<glyph unicode="&#x17e;" horiz-adv-x="937" d="M70 0v135l454 670h-418v184h738v-135l-455 -670h471v-184h-790zM119 1405h258l92 -158l92 158h258l-274 -301h-152z" />
<glyph unicode="&#x192;" horiz-adv-x="1208" d="M0 -102l76 157q39 -26 117 -26q83 0 125 41.5t53 124.5l57 434h-152v184h179l34 240q49 352 396 352q138 0 231 -57l-76 -158q-41 27 -116 27q-84 0 -126 -41.5t-53 -124.5l-34 -238h245v-184h-272l-57 -436q-49 -353 -396 -353q-137 0 -231 58z" />
<glyph unicode="&#x2c6;" horiz-adv-x="675" d="M-12 1104l274 301h152l274 -301h-258l-92 158l-92 -158h-258z" />
<glyph unicode="&#x2c7;" horiz-adv-x="675" d="M-12 1405h258l92 -158l92 158h258l-274 -301h-152z" />
<glyph unicode="&#x2d8;" horiz-adv-x="675" d="M0 1438h201q22 -99 137 -99t137 99h201q-14 -143 -99.5 -219t-238.5 -76t-238.5 76t-99.5 219z" />
<glyph unicode="&#x2d9;" horiz-adv-x="675" d="M193 1257q0 58 38 98t107 40t107 -40t38 -98q0 -57 -38 -97t-107 -40t-107 40t-38 97z" />
<glyph unicode="&#x2da;" horiz-adv-x="675" d="M127 1296q0 83 61.5 142t149.5 59t149.5 -59t61.5 -142t-61.5 -141.5t-149.5 -58.5t-149.5 58.5t-61.5 141.5zM279 1296q0 -33 15 -52t44 -19t44 19t15 52t-15 52.5t-44 19.5t-44 -19.5t-15 -52.5z" />
<glyph unicode="&#x2db;" horiz-adv-x="675" d="M233 4h162l217 -307h-272z" />
<glyph unicode="&#x2dc;" horiz-adv-x="675" d="M0 1141q0 109 49 177t139 68q58 0 111 -25.5t92.5 -51t65.5 -25.5q38 0 51.5 23t13.5 69h154q0 -111 -49.5 -178.5t-134.5 -67.5q-48 0 -92 16t-70 35.5t-56 35.5t-55 16q-67 0 -67 -92h-152z" />
<glyph unicode="&#x2dd;" horiz-adv-x="675" d="M76 1122l155 293h240l-246 -293h-149zM436 1122l156 293h239l-245 -293h-150z" />
<glyph unicode="&#x3a9;" horiz-adv-x="1552" d="M123 778q0 185 86.5 328t234.5 219t332 76q138 0 258 -45t207.5 -125t138 -197t50.5 -256q0 -91 -31 -185t-80.5 -170.5t-100 -135.5t-100.5 -99h240v-188h-504v139q62 40 121.5 99t113.5 136t86.5 175t32.5 199q0 129 -59.5 229.5t-157 152.5t-213.5 52 q-182 0 -308 -120t-126 -314q0 -101 32.5 -199.5t86 -175.5t113 -136t122.5 -98v-139h-503v188h239q-50 40 -100.5 99t-99.5 135.5t-80 170.5t-31 185z" />
<glyph unicode="&#x3c0;" horiz-adv-x="1314" d="M72 915q45 30 129.5 53t154.5 23h867v-203h-224v-524q0 -46 18 -71t64 -25q41 0 99 31l53 -172q-82 -52 -201 -52q-64 0 -113 16t-79.5 42.5t-49.5 66t-26.5 82t-7.5 94.5v512h-207v-370q0 -114 -19 -238t-57 -180h-264q45 75 70.5 203.5t25.5 214.5v366 q-120 -19 -194 -55z" />
<glyph unicode="&#xe00;" horiz-adv-x="399" />
<glyph unicode="&#xe01;" horiz-adv-x="1273" d="M78 811q44 144 198.5 252t356.5 108q240 0 374 -125.5t134 -332.5v-713h-267v713q0 121 -64.5 183t-182.5 62q-83 0 -161.5 -42t-107.5 -97l144 -117v-47q-101 -46 -101 -174v-481h-266v479q0 64 30 115t79 82z" />
<glyph unicode="&#xe02;" horiz-adv-x="1161" d="M102 383v106q0 59 29 115t63.5 93t63.5 82t29 83v29q0 47 -47 47h-125v209h157q152 0 210.5 -56t58.5 -178v-51q0 -44 -17.5 -85t-43 -74t-51 -65.5t-43 -71t-17.5 -77.5v-108q0 -102 48.5 -149.5t147.5 -47.5t148 52t49 161v750h266v-748q0 -206 -114.5 -315 t-348.5 -109q-463 0 -463 408z" />
<glyph unicode="&#xe03;" horiz-adv-x="1179" d="M49 973v201l174 -89q63 78 174 78q90 0 138.5 -54t48.5 -153v-38q0 -44 -20.5 -87.5t-49 -79t-57.5 -71t-49.5 -78t-20.5 -84.5v-137q0 -102 49 -149.5t148 -47.5t147.5 52t48.5 161v750h267v-748q0 -206 -114.5 -315t-348.5 -109q-463 0 -463 408v135q0 47 21 94 t51 84.5t60.5 72.5t51.5 70.5t21 65.5v29q0 33 -31 33q-41 0 -68 -84z" />
<glyph unicode="&#xe04;" horiz-adv-x="1306" d="M133 0v713q0 198 141 328t379 130t379.5 -130t141.5 -328v-713h-267v711q0 109 -67 178t-187 69t-187 -69t-67 -178v-203q59 113 217 113h115v-222h-121q-172 0 -211 -139v-260h-266z" />
<glyph unicode="&#xe05;" horiz-adv-x="1327" d="M133 0v795q0 303 313 376l218 -133l217 133q313 -73 313 -376v-795h-266v797q0 123 -92 141l-172 -107l-172 107q-93 -18 -93 -141v-289q27 51 83 82t139 31h118v-222h-125q-176 0 -215 -139v-260h-266z" />
<glyph unicode="&#xe06;" horiz-adv-x="1259" d="M49 973v201l174 -89q63 78 174 78q90 0 138.5 -54t48.5 -153v-26q0 -49 -18.5 -95t-45 -82.5t-53.5 -72.5t-45.5 -78t-18.5 -84v-143q38 -81 112 -134t159 -53q186 0 186 236v723h266v-735q0 -215 -100.5 -326t-286.5 -111q-106 0 -194.5 49t-141.5 117l-28 -141h-238 v518q0 47 19.5 94t47.5 84.5t55.5 72.5t47 70.5t19.5 65.5v29q0 33 -31 33q-41 0 -68 -84z" />
<glyph unicode="&#xe07;" horiz-adv-x="1161" d="M0 1147h262l281 -934h22q102 0 177 112.5t75 288.5q0 178 -57.5 261t-157.5 83q-66 0 -137 -26l-39 194q80 45 221 45q190 0 313 -149t123 -408q0 -283 -146.5 -448.5t-379.5 -165.5h-211z" />
<glyph unicode="&#xe08;" horiz-adv-x="1120" d="M8 999q89 81 214 126.5t276 45.5q262 0 403 -148.5t141 -416.5q0 -123 -40.5 -236t-107.5 -193.5t-159 -128.5t-192 -48h-217l-103 406q-9 47 -59 47h-76v213h150q86 0 135 -32t71 -118l76 -303h23q97 13 165 119t68 276q0 179 -76.5 264.5t-216.5 85.5q-220 0 -393 -149 z" />
<glyph unicode="&#xe09;" horiz-adv-x="1224" d="M57 1004q245 167 521 167q254 0 384 -126.5t130 -358.5v-686h-238l-29 141q-122 -166 -336 -166q-159 0 -240 87t-81 272v74q0 45 -39 45h-59v213h161q203 0 203 -197v-123q0 -91 36.5 -124.5t104.5 -33.5q181 0 250 187v311q0 136 -62.5 204t-195.5 68 q-110 0 -217.5 -42t-195.5 -109z" />
<glyph unicode="&#xe0a;" horiz-adv-x="1161" d="M102 383v106q0 59 29 115t63.5 93t63.5 82t29 83v29q0 47 -47 47h-125v209h157q152 0 210.5 -56t58.5 -178v-51q0 -44 -17.5 -85t-43 -74t-51 -65.5t-43 -71t-17.5 -77.5v-108q0 -102 49 -149.5t149 -47.5q199 0 199 213v213q0 66 -21 94.5t-69 28.5h-31l-41 98l217 316 h279l-232 -297q79 -26 121.5 -92t42.5 -154v-205q0 -205 -115 -314.5t-350 -109.5q-465 0 -465 408z" />
<glyph unicode="&#xe0b;" horiz-adv-x="1175" d="M49 973v201l174 -89q63 78 174 78q90 0 138.5 -54t48.5 -153v-38q0 -44 -20.5 -87.5t-49 -79t-57.5 -71t-49.5 -78t-20.5 -84.5v-137q0 -102 49 -149.5t148 -47.5t147.5 52t48.5 161v213q0 66 -21 94.5t-69 28.5h-31l-41 98l218 316h278l-231 -297q79 -26 121.5 -92 t42.5 -154v-205q0 -206 -114.5 -315t-348.5 -109q-463 0 -463 408v135q0 47 21 94t51 84.5t60.5 72.5t51.5 70.5t21 65.5v29q0 33 -31 33q-41 0 -68 -84z" />
<glyph unicode="&#xe0c;" horiz-adv-x="1916" d="M78 811q21 68 68.5 132t114.5 115t158 82t189 31q230 0 358 -125.5t128 -332.5v-338q38 -80 108 -133.5t146 -53.5q170 0 170 236v723h266v-735q0 -211 -96 -324t-258 -113q-106 0 -194.5 49t-141.5 117l-29 -141h-238v713q0 120 -60 182.5t-165 62.5q-78 0 -145.5 -41 t-98.5 -98l144 -117v-47q-101 -46 -101 -174v-239q0 -33 31 -33h119v-209h-180q-116 0 -176 59.5t-60 165.5v254q0 64 30 115t79 82z" />
<glyph unicode="&#xe0d;" horiz-adv-x="1912" d="M78 811q21 68 68.5 132t114.5 115t158 82t189 31q230 0 358 -125.5t128 -332.5v-301q0 -107 37.5 -153t113.5 -46q88 0 158.5 52t109.5 134v748h267v-1067q0 -108 -38.5 -192t-107 -136t-158.5 -79t-196 -27q-123 0 -219.5 23.5t-192.5 72.5l66 182q73 -37 161 -58.5 t162 -21.5q124 0 192.5 50.5t68.5 173.5v98q-51 -65 -139 -115.5t-183 -50.5q-176 0 -272.5 99t-96.5 300v314q0 120 -60 182.5t-165 62.5q-78 0 -145.5 -41t-98.5 -98l144 -117v-47q-101 -46 -101 -174v-239q0 -33 31 -33h119v-209h-180q-116 0 -176 59.5t-60 165.5v254 q0 64 30 115t79 82z" />
<glyph unicode="&#xe0e;" horiz-adv-x="1290" d="M51 0v209h94q31 0 31 33v237q0 127 100 189l-186 143q42 146 196.5 253t360.5 107q245 0 377.5 -125t132.5 -333v-1123h-278q-44 44 -115 75.5t-135 31.5q-90 0 -162 -25t-156 -94l-71 209q67 64 149 96.5t199 32.5q88 0 173 -34t130 -85v916q0 121 -65.5 183t-184.5 62 q-87 0 -162.5 -41t-107.5 -98l159 -123v-45q-88 -48 -88 -170v-256q0 -107 -59.5 -166t-175.5 -59h-156z" />
<glyph unicode="&#xe0f;" horiz-adv-x="1290" d="M51 0v209h94q31 0 31 33v237q0 127 100 189l-186 143q42 146 196.5 253t360.5 107q245 0 377.5 -125t132.5 -333v-1123h-274l-199 125q-45 -68 -106 -104.5t-152 -36.5q-141 0 -244 59l68 209q93 -59 182 -59q174 0 215 164l244 -160v926q0 121 -65.5 183t-184.5 62 q-87 0 -162.5 -41t-107.5 -98l159 -123v-45q-88 -48 -88 -170v-256q0 -107 -59.5 -166t-175.5 -59h-156z" />
<glyph unicode="&#xe10;" horiz-adv-x="1120" d="M8 999q89 81 214 126.5t276 45.5q118 0 217 -45l86 101h293l-191 -228q139 -158 139 -393q0 -123 -40.5 -236t-107.5 -193.5t-159 -128.5t-192 -48h-217l-103 406q-9 47 -59 47h-76v213h150q86 0 135 -32t71 -118l76 -303h23q97 13 165 119t68 276q0 169 -78 259.5 t-215 90.5q-220 0 -393 -149zM104 -205h158q139 0 205 103q42 -55 85.5 -79t102.5 -24h66v117h237v-322h-282q-67 0 -123.5 28.5t-85.5 78.5q-25 -49 -82 -78t-121 -29h-160v205z" />
<glyph unicode="&#xe11;" horiz-adv-x="1294" d="M49 973v201l174 -89q63 78 174 78q134 0 156 -127q51 60 126 97.5t163 37.5q138 0 227.5 -94t89.5 -284v-793h-266v780q0 99 -28.5 138.5t-96.5 39.5q-94 0 -180 -73.5t-135.5 -182t-49.5 -213.5v-489h-266v479q0 110 58 223.5t131 176.5v55q0 33 -31 33q-41 0 -68 -84z " />
<glyph unicode="&#xe12;" horiz-adv-x="2037" d="M82 561q0 222 109 391.5t294 218.5l187 -129l209 129q313 -73 313 -376v-420q38 -81 110.5 -134t157.5 -53q94 0 135 58t41 178v723h267v-735q0 -216 -96 -326.5t-281 -110.5q-107 0 -194 49t-140 117l-29 -141h-237v797q0 123 -92 141l-164 -98l-156 94 q-82 -41 -125 -137.5t-43 -237.5q0 -97 21.5 -170t57 -113t76 -59.5t83.5 -19.5q87 0 153 30l47 -192q-83 -51 -225 -51q-98 0 -183 34.5t-152 103t-105.5 181t-38.5 258.5z" />
<glyph unicode="&#xe13;" horiz-adv-x="1916" d="M78 811q21 68 68.5 132t114.5 115t158 82t189 31q230 0 358 -125.5t128 -332.5v-326q0 -107 37.5 -153t113.5 -46q88 0 158.5 52t109.5 135v772h267v-1147h-238l-29 141q-46 -70 -128.5 -118t-190.5 -48q-175 0 -271 100t-96 300v338q0 120 -60 182.5t-165 62.5 q-78 0 -145.5 -41t-98.5 -98l144 -117v-47q-101 -46 -101 -174v-239q0 -33 31 -33h119v-209h-180q-116 0 -176 59.5t-60 165.5v254q0 64 30 115t79 82z" />
<glyph unicode="&#xe14;" horiz-adv-x="1323" d="M82 559q0 174 64.5 311t196 219t310.5 82q254 0 395.5 -134.5t141.5 -344.5v-692h-266v694q0 122 -71 193t-194 71q-148 0 -229.5 -106.5t-81.5 -292.5q0 -97 21.5 -170t57 -113t76 -59.5t83.5 -19.5q87 0 153 30l47 -192q-83 -51 -225 -51q-95 0 -179 34.5t-152 102.5 t-108 181t-40 257z" />
<glyph unicode="&#xe15;" horiz-adv-x="1343" d="M82 561q0 222 109 391.5t294 218.5l195 -129l217 129q313 -73 313 -376v-795h-266v797q0 123 -92 141l-172 -98l-164 94q-82 -41 -125 -137.5t-43 -237.5q0 -97 21.5 -170t57 -113t76 -59.5t83.5 -19.5q87 0 153 30l47 -192q-83 -51 -225 -51q-98 0 -183 34.5t-152 103 t-105.5 181t-38.5 258.5z" />
<glyph unicode="&#xe16;" horiz-adv-x="1275" d="M78 811q44 144 198.5 252t356.5 108q241 0 375.5 -125.5t134.5 -332.5v-713h-266v713q0 121 -66 183t-184 62q-83 0 -161.5 -42t-107.5 -97l144 -117v-47q-101 -46 -101 -174v-239q0 -33 31 -33h119v-209h-180q-116 0 -176 59.5t-60 165.5v254q0 64 30 115t79 82z" />
<glyph unicode="&#xe17;" horiz-adv-x="1292" d="M137 0v1147h238l28 -141q193 165 394 165q165 0 263.5 -110t98.5 -309v-752h-266v739q0 113 -36.5 166t-119.5 53q-91 0 -178 -46t-156 -126v-786h-266z" />
<glyph unicode="&#xe18;" horiz-adv-x="1161" d="M78 854q0 148 129 232.5t362 84.5q266 0 451 -96l-47 -196q-171 94 -400 94q-114 0 -177.5 -32t-63.5 -81q0 -77 102 -92l342 -49q145 -21 218 -91t73 -206v-66q0 -191 -119.5 -282.5t-372.5 -91.5q-262 0 -376.5 87.5t-114.5 288.5v109h254v-109q0 -97 55.5 -137.5 t181.5 -40.5q128 0 183 41.5t55 134.5v72q0 76 -82 88l-348 49q-148 21 -226.5 90t-78.5 199z" />
<glyph unicode="&#xe19;" horiz-adv-x="1271" d="M133 391v756h266v-744q0 -215 191 -215q87 0 163 52t115 135v772h267v-1147h-238l-29 141q-55 -71 -140 -118.5t-198 -47.5q-183 0 -290 104t-107 312z" />
<glyph unicode="&#xe1a;" horiz-adv-x="1277" d="M133 436v711h266v-711q0 -118 63.5 -183t176.5 -65t176.5 65t63.5 183v711h266v-711q0 -228 -131.5 -344.5t-374.5 -116.5t-374.5 116.5t-131.5 344.5z" />
<glyph unicode="&#xe1b;" horiz-adv-x="1277" d="M133 436v711h266v-711q0 -118 63.5 -183t176.5 -65t176.5 65t63.5 183v1100h266v-1100q0 -228 -131.5 -344.5t-374.5 -116.5t-374.5 116.5t-131.5 344.5z" />
<glyph unicode="&#xe1c;" horiz-adv-x="1404" d="M137 0v922q0 106 60 165.5t176 59.5h168v-209h-119q-31 0 -31 -33v-268q0 -196 -33 -399h7q46 184 110 307l150 280h163l142 -280q64 -123 110 -307h7q-33 203 -33 399v510h254v-1147h-291l-182 393q-56 115 -86 246h-4q-29 -127 -87 -246l-190 -393h-291z" />
<glyph unicode="&#xe1d;" horiz-adv-x="1404" d="M137 0v922q0 106 60 165.5t176 59.5h168v-209h-119q-31 0 -31 -33v-268q0 -196 -33 -399h7q46 184 110 307l150 280h163l142 -280q64 -123 110 -307h7q-33 203 -33 399v899h254v-1536h-291l-182 393q-56 115 -86 246h-4q-29 -127 -87 -246l-190 -393h-291z" />
<glyph unicode="&#xe1e;" horiz-adv-x="1525" d="M51 1147h260l90 -563q29 -164 31 -379h6q22 242 60 379l141 506h248l141 -506q41 -175 59 -379h7q2 221 30 379l90 563h261l-195 -1147h-293l-151 524q-47 164 -70 365h-6q-23 -201 -70 -365l-151 -524h-293z" />
<glyph unicode="&#xe1f;" horiz-adv-x="1525" d="M51 1147h260l90 -563q29 -164 31 -379h6q17 190 70 379l137 506h248l151 -506q33 -102 70 -379h6q0 223 19 379l96 952h248l-185 -1536h-284l-162 524q-64 222 -80 365h-6q-25 -224 -66 -365l-161 -524h-293z" />
<glyph unicode="&#xe20;" horiz-adv-x="1290" d="M51 0v209h94q31 0 31 33v237q0 127 100 189l-186 143q42 146 196.5 253t360.5 107q245 0 377.5 -125t132.5 -333v-713h-266v713q0 121 -65.5 183t-184.5 62q-87 0 -162.5 -41t-107.5 -98l159 -123v-45q-88 -48 -88 -170v-256q0 -107 -59.5 -166t-175.5 -59h-156z" />
<glyph unicode="&#xe21;" horiz-adv-x="1271" d="M137 0v1147h266v-772q38 -79 115 -133t162 -54q192 0 192 236v723h267v-735q0 -214 -103.5 -325.5t-290.5 -111.5q-107 0 -198.5 49.5t-143.5 116.5l-28 -141h-238z" />
<glyph unicode="&#xe22;" horiz-adv-x="1234" d="M82 360q0 97 58 168t149 88q-81 18 -144 98t-63 175q0 119 84.5 196.5t228.5 77.5q147 0 238 -43l-27 -198q-68 26 -129 26q-67 0 -103 -27t-36 -75q0 -57 42.5 -90t100.5 -33h156l22 -205h-139q-84 0 -130 -40.5t-46 -112.5q0 -83 60 -130t155 -47q134 0 205.5 68.5 t71.5 187.5v703h266v-705q0 -220 -133 -343.5t-416 -123.5q-214 0 -342.5 98.5t-128.5 286.5z" />
<glyph unicode="&#xe23;" horiz-adv-x="1040" d="M78 856q0 136 121 225.5t309 89.5q217 0 416 -102l-70 -188q-143 77 -334 77q-84 0 -134 -24.5t-50 -75.5q0 -23 13 -43.5t30 -34.5t53.5 -30.5t65 -27t82.5 -28.5q94 -31 157 -62t116.5 -75.5t79 -105.5t25.5 -142q0 -152 -117.5 -243t-342.5 -91q-245 0 -416 99l63 202 q160 -88 332 -88q107 0 165 31.5t58 93.5q0 23 -8 42t-27 35t-35.5 27.5t-49 24.5t-50.5 19.5t-57 19.5q-4 1 -6 2t-5.5 2t-6.5 2q-68 22 -118 42.5t-101.5 52.5t-84 68.5t-53 89t-20.5 116.5z" />
<glyph unicode="&#xe24;" horiz-adv-x="1275" d="M78 811q44 144 198.5 252t356.5 108q241 0 375.5 -125.5t134.5 -332.5v-1123h-266v1123q0 121 -66 183t-184 62q-83 0 -161.5 -42t-107.5 -97l144 -117v-47q-101 -46 -101 -174v-239q0 -33 31 -33h119v-209h-180q-116 0 -176 59.5t-60 165.5v254q0 64 30 115t79 82z" />
<glyph unicode="&#xe25;" horiz-adv-x="1220" d="M66 342q0 189 130.5 277t401.5 88h229v38q0 103 -58 162.5t-175 59.5q-218 0 -399 -133l-84 184q88 66 216.5 109.5t278.5 43.5q220 0 350.5 -116.5t130.5 -309.5v-745h-260v502h-249q-123 0 -187.5 -36t-64.5 -122q0 -72 46 -115t117 -43q87 0 158 35l43 -194 q-98 -45 -229 -45q-174 0 -284.5 93.5t-110.5 266.5z" />
<glyph unicode="&#xe26;" horiz-adv-x="1290" d="M51 0v209h94q31 0 31 33v237q0 127 100 189l-186 143q42 146 196.5 253t360.5 107q245 0 377.5 -125t132.5 -333v-1123h-266v1123q0 121 -65.5 183t-184.5 62q-87 0 -162.5 -41t-107.5 -98l159 -123v-45q-88 -48 -88 -170v-256q0 -107 -59.5 -166t-175.5 -59h-156z" />
<glyph unicode="&#xe27;" horiz-adv-x="1083" d="M51 80l62 207q166 -99 321 -99q148 0 224.5 97.5t76.5 287.5q0 193 -79 289t-224 96q-166 0 -319 -110l-62 201q87 57 193.5 89.5t214.5 32.5q259 0 400.5 -151.5t141.5 -431.5q0 -303 -141.5 -458t-402.5 -155q-258 0 -406 105z" />
<glyph unicode="&#xe28;" horiz-adv-x="1306" d="M133 0v713q0 198 141 328t379 130q108 0 201 -41l82 97h293l-182 -219q127 -118 127 -306v-702h-267v700q0 110 -68 184t-186 74q-120 0 -187 -69t-67 -178v-203q59 113 217 113h115v-222h-121q-172 0 -211 -139v-260h-266z" />
<glyph unicode="&#xe29;" horiz-adv-x="1302" d="M133 436v711h266v-711q0 -118 63.5 -183t176.5 -65t176.5 65t63.5 183v125h-244v207h244v379h266v-379h182l-47 -207h-135v-125q0 -228 -131.5 -344.5t-374.5 -116.5t-374.5 116.5t-131.5 344.5z" />
<glyph unicode="&#xe2a;" horiz-adv-x="1220" d="M66 342q0 189 130.5 277t401.5 88h229v38q0 93 -60.5 157.5t-172.5 64.5q-218 0 -399 -133l-84 184q88 66 216.5 109.5t278.5 43.5q108 0 172 -34l72 90h293l-168 -201q112 -112 112 -281v-745h-260v502h-249q-123 0 -187.5 -36t-64.5 -122q0 -72 46 -115t117 -43 q87 0 158 35l43 -194q-98 -45 -229 -45q-174 0 -284.5 93.5t-110.5 266.5z" />
<glyph unicode="&#xe2b;" horiz-adv-x="1245" d="M137 0v1147h266v-389l465 389h336l-418 -344q99 -28 155 -88.5t91 -159.5l185 -555h-273l-162 489q-54 152 -178 162l-201 -172v-479h-266z" />
<glyph unicode="&#xe2c;" horiz-adv-x="1404" d="M137 0v1147h254v-510q0 -196 -33 -399h7q46 184 110 307l141 280h164l150 -280q64 -123 110 -307h7q-33 203 -33 399v266q0 66 -28.5 105t-86.5 39h-27l-41 98l287 391h266l-305 -373q91 -19 140 -91.5t49 -188.5v-883h-291l-191 393q-56 115 -86 246h-4 q-30 -131 -86 -246l-182 -393h-291z" />
<glyph unicode="&#xe2d;" horiz-adv-x="1241" d="M74 1010q226 161 508 161q261 0 419 -156t158 -437q0 -296 -147.5 -449.5t-411.5 -153.5q-256 0 -389 116.5t-133 316.5v34q0 114 50 169t159 55h262v-213h-176q-37 0 -37 -39v-6q0 -220 244 -220q150 0 231.5 99t81.5 299q0 177 -89.5 274.5t-240.5 97.5 q-212 0 -403 -147z" />
<glyph unicode="&#xe2e;" horiz-adv-x="1241" d="M74 1010q226 161 508 161q114 0 202 -36l80 92h293l-174 -207q176 -168 176 -442q0 -296 -147.5 -449.5t-411.5 -153.5q-256 0 -389 116.5t-133 316.5v34q0 114 50 169t159 55h262v-213h-176q-37 0 -37 -39v-6q0 -220 244 -220q150 0 231.5 99t81.5 299 q0 171 -90.5 271.5t-239.5 100.5q-212 0 -403 -147z" />
<glyph unicode="&#xe2f;" horiz-adv-x="1138" d="M61 1022v125h263v-125q0 -102 39 -151.5t108 -49.5q110 0 191 71t81 187v68h263v-1147h-267v784q-43 -76 -125.5 -124t-183.5 -48q-173 0 -271 114t-98 296z" />
<glyph unicode="&#xe30;" horiz-adv-x="665" d="M78 365v94h246v-80q0 -47 47 -47h209v-201h-271q-105 0 -168 56t-63 178zM78 918v94h246v-80q0 -47 47 -47h209v-201h-271q-105 0 -168 56t-63 178z" />
<glyph unicode="&#xe31;" d="M-715 1524v102h246v-88q0 -47 47 -47h533v-201h-594q-105 0 -168.5 56t-63.5 178z" />
<glyph unicode="&#xe32;" horiz-adv-x="999" d="M8 1038q203 133 430 133q208 0 318 -117.5t110 -324.5v-729h-266v737q0 221 -184 221q-168 0 -340 -110z" />
<glyph unicode="&#xe33;" horiz-adv-x="999" d="M-500 1487q0 96 67.5 161.5t162.5 65.5q97 0 164 -65.5t67 -161.5t-67 -161.5t-164 -65.5q-95 0 -162.5 65.5t-67.5 161.5zM-348 1489q0 -35 23.5 -58.5t54.5 -23.5q35 0 57.5 23.5t22.5 58.5t-22.5 57.5t-57.5 22.5q-32 0 -55 -23t-23 -57zM8 1038q203 133 430 133 q208 0 318 -117.5t110 -324.5v-729h-266v737q0 221 -184 221q-168 0 -340 -110z" />
<glyph unicode="&#xe34;" d="M-1065 1290v201h932v-201h-932z" />
<glyph unicode="&#xe35;" d="M-1065 1290v201h694v195h238v-396h-932z" />
<glyph unicode="&#xe36;" d="M-1065 1290v201h563q0 93 61 154t150 61t150 -59.5t61 -149.5q0 -87 -61.5 -147t-149.5 -60h-774zM-362 1499q0 -31 21 -52.5t50 -21.5q31 0 51.5 21.5t20.5 52.5q0 32 -20.5 53t-51.5 21q-30 0 -50.5 -21t-20.5 -53z" />
<glyph unicode="&#xe37;" d="M-1065 1290v201h473v195h184v-205h91v205h184v-396h-932z" />
<glyph unicode="&#xe38;" d="M-502 -133h172q101 0 149 -44t48 -142v-256h-242v196q0 49 -49 49h-78v197z" />
<glyph unicode="&#xe39;" d="M-862 -133h348v-229q0 -33 21 -49.5t53 -16.5q33 0 53 16t20 50v229h234v-229q0 -105 -81 -168.5t-226 -63.5t-224 63.5t-79 168.5v43h-119v186z" />
<glyph unicode="&#xe3a;" d="M-426 -281q0 65 49 113.5t115 48.5q69 0 117.5 -48t48.5 -114t-48.5 -112.5t-117.5 -46.5q-66 0 -115 47.5t-49 111.5z" />
<glyph unicode="&#xe3f;" horiz-adv-x="1208" d="M143 0v1335h385v201h131v-203q201 -7 302.5 -102.5t101.5 -253.5q0 -95 -52.5 -163t-125.5 -107q105 -31 168 -110t63 -206q0 -79 -28 -147.5t-83 -122t-144 -85.5t-202 -34v-207h-131v205h-385zM397 213h131v371h-131v-371zM397 793h131v329h-131v-329zM659 217 q95 4 149 56t54 130q0 75 -53 123t-150 52v-361zM659 797q68 5 111 50t43 116q0 64 -42 108t-112 45v-319z" />
<glyph unicode="&#xe40;" horiz-adv-x="544" d="M139 0v1147h267v-1147h-267z" />
<glyph unicode="&#xe41;" horiz-adv-x="1011" d="M139 0v1147h267v-1147h-267zM606 0v1147h266v-1147h-266z" />
<glyph unicode="&#xe42;" horiz-adv-x="618" d="M-35 1665q67 108 215 182t320 74q114 0 215 -27t168 -67l-49 -205q-134 88 -322 88q-191 0 -283 -88q114 -57 182 -162.5t68 -247.5v-1212h-268v1229q0 148 -69.5 238.5t-172.5 127.5z" />
<glyph unicode="&#xe43;" horiz-adv-x="618" d="M-45 1722q155 199 418 199q158 0 253 -94.5t95 -229.5q0 -69 -25 -132t-60.5 -112t-71 -96t-60.5 -103t-25 -114v-1040h-268v1055q0 63 25.5 127t61.5 114.5t72 98t61.5 95t25.5 87.5q0 58 -35 95.5t-105 37.5q-80 0 -138.5 -36t-125.5 -113z" />
<glyph unicode="&#xe44;" horiz-adv-x="618" d="M0 1675v211h674v-192q-195 -84 -195 -367v-1327h-268v1309q0 272 184 366h-395z" />
<glyph unicode="&#xe45;" horiz-adv-x="999" d="M8 1038q203 133 430 133q208 0 318 -117.5t110 -324.5v-1139h-266v1147q0 221 -184 221q-168 0 -340 -110z" />
<glyph unicode="&#xe46;" horiz-adv-x="1187" d="M74 870q0 70 25.5 127t68.5 94t96.5 58t112.5 25l180 -127l178 124q154 -10 237 -100.5t83 -239.5v-1241h-267v1274q0 107 -65 119l-166 -119l-184 121q-60 -20 -60 -117q0 -51 29 -81.5t64 -30.5q51 0 94 18l35 -180q-68 -39 -166 -39q-57 0 -108.5 19t-94 56t-67.5 99 t-25 141z" />
<glyph unicode="&#xe47;" d="M-981 1530q0 107 80.5 183.5t222.5 76.5h473v-182h-467q-106 0 -106 -80q0 -36 24 -60t60 -24q40 0 68 25t36 63l129 2q16 -61 92 -61h166v-183h-157q-50 0 -93.5 28.5t-68.5 76.5q-54 -115 -189 -115q-122 0 -196 65t-74 185z" />
<glyph unicode="&#xe48;" d="M-371 1796v336h238v-336h-238z" />
<glyph unicode="&#xe49;" d="M-602 1976v191h207q131 0 131 -113v-39q0 -30 28 -30h289v-189h-403q-47 0 -76 27t-29 71v52q0 30 -28 30h-119z" />
<glyph unicode="&#xe4a;" d="M-713 1937q0 68 54 128.5t145 64.5l123 -92l115 94q82 -4 131 -59t49 -131q0 -39 -4 -50q51 54 51 183q0 50 -33 112h203q24 -53 24 -119q0 -108 -76 -190t-190 -82h-121l-12 31q16 22 16 67q0 27 -14.5 46.5t-38.5 23.5l-96 -63l-98 57q-31 -11 -31 -64q0 -49 24 -102 h-180q-41 65 -41 145z" />
<glyph unicode="&#xe4b;" d="M-537 1939v177l183 -7l-6 150h217l-7 -150l183 7v-177l-183 7l7 -150h-217l6 150z" />
<glyph unicode="&#xe4c;" d="M-500 1597v109q0 102 63.5 159.5t184.5 57.5h225v-199h-176q-24 0 -38.5 -14.5t-14.5 -40.5v-72h-244z" />
<glyph unicode="&#xe4d;" d="M-500 1487q0 96 67.5 161.5t162.5 65.5q97 0 164 -65.5t67 -161.5t-67 -161.5t-164 -65.5q-95 0 -162.5 65.5t-67.5 161.5zM-348 1489q0 -35 23.5 -58.5t54.5 -23.5q35 0 57.5 23.5t22.5 58.5t-22.5 57.5t-57.5 22.5q-32 0 -55 -23t-23 -57z" />
<glyph unicode="&#xe4e;" d="M-700 1481q0 95 70.5 151t203.5 37q-43 34 -43 86q0 44 37 74.5t115 30.5h167l37 -146h-168q-10 0 -17 -9.5t-7 -21.5q0 -17 19 -30.5t55 -30.5l-43 -96q-73 24 -142 24q-39 0 -66.5 -15t-27.5 -42q0 -29 24.5 -47.5t65.5 -18.5q66 0 133 27v-135q-71 -41 -155 -41 q-119 0 -188.5 49.5t-69.5 153.5z" />
<glyph unicode="&#xe4f;" horiz-adv-x="1118" d="M123 492q0 182 127.5 309t308.5 127t308.5 -127t127.5 -309q0 -118 -58 -219t-158.5 -160.5t-219.5 -59.5t-219.5 59.5t-158.5 160.5t-58 219zM213 492q0 -144 102 -245.5t244 -101.5q145 0 245.5 101t100.5 246q0 142 -101 244t-245 102q-141 0 -243.5 -102.5 t-102.5 -243.5zM305 489q0 106 74 180t178 74q106 0 180 -73.5t74 -177.5q0 -105 -74.5 -178.5t-177.5 -73.5q-106 0 -180 72.5t-74 176.5zM457 489q0 -41 29.5 -70.5t72.5 -29.5q41 0 69.5 30t28.5 73q0 41 -29.5 69.5t-70.5 28.5t-70.5 -30t-29.5 -71z" />
<glyph unicode="&#xe50;" horiz-adv-x="1331" d="M82 496q0 160 79.5 279.5t210.5 179t294 59.5q97 0 184.5 -22t160 -65.5t126 -105t83 -145t29.5 -180.5q0 -160 -79 -280t-210 -180.5t-294 -60.5t-294 60.5t-210.5 180.5t-79.5 280zM344 496q0 -144 91 -232t229 -88q141 0 232 88t91 232t-90.5 230.5t-232.5 86.5 q-138 0 -229 -87t-91 -230z" />
<glyph unicode="&#xe51;" horiz-adv-x="1357" d="M78 535q0 147 74 256.5t203.5 166t295.5 56.5q284 0 454.5 -159.5t170.5 -432.5q0 -157 -56 -282.5t-154.5 -206t-229 -122.5t-283.5 -42h-61l24 200h55q87 0 164 26t140.5 78t101 141t37.5 204q0 190 -98.5 292.5t-258.5 102.5q-142 0 -229.5 -75t-87.5 -201 q0 -115 53.5 -179.5t141.5 -64.5q123 0 202 39l21 -178q-98 -58 -223 -58q-94 0 -175.5 27.5t-145 80t-100 138t-36.5 193.5z" />
<glyph unicode="&#xe52;" horiz-adv-x="1538" d="M127 414v733h262v-733q0 -99 46 -156t122 -57h426q75 0 122.5 57.5t47.5 155.5v231q0 133 -82 160l-139 -94l-141 94q-28 -11 -47 -43.5t-19 -75.5q0 -53 32.5 -99.5t90.5 -66.5l-53 -149q-147 21 -232.5 107t-85.5 233q0 107 68 193.5t196 109.5l191 -140l174 140 q161 -23 235 -112t74 -261v-227q0 -187 -112 -300.5t-312 -113.5h-444q-199 0 -309.5 113.5t-110.5 300.5z" />
<glyph unicode="&#xe53;" horiz-adv-x="1394" d="M86 504q0 231 108.5 370.5t280.5 139.5q161 0 227 -148q40 72 101.5 110t159.5 38q137 0 223 -91.5t86 -244.5v-678h-262v680q0 135 -88 135q-107 0 -107 -147v-299h-229v299q0 74 -18.5 110.5t-69.5 36.5q-74 0 -112 -84.5t-38 -224.5q0 -149 44.5 -237.5t123.5 -88.5 q46 0 105 27l47 -162q-73 -61 -168 -61q-193 0 -303.5 137t-110.5 383z" />
<glyph unicode="&#xe54;" horiz-adv-x="1280" d="M82 483q0 246 151.5 376t401.5 130h223q70 0 94.5 21.5t24.5 62.5v74h258v-74q0 -143 -91 -214t-261 -71h-246q-293 0 -293 -303q0 -138 63.5 -223.5t157.5 -85.5q82 0 135 39q-47 65 -47 158q0 128 80.5 188t208.5 60h180l-43 -197h-84q-39 0 -67.5 -26.5t-28.5 -71.5 q0 -59 44 -94t132 -35h158l-43 -197h-160q-89 0 -144.5 16.5t-99.5 57.5q-87 -99 -258 -99q-196 0 -321 137.5t-125 370.5z" />
<glyph unicode="&#xe55;" horiz-adv-x="1280" d="M82 483q0 174 75 290t214 171q-11 42 -11 70q0 93 64 156t156 63q94 0 158.5 -63t64.5 -156q0 -4 -1 -12.5t-1 -12.5h57q70 0 94.5 21.5t24.5 62.5v74h258v-74q0 -144 -90.5 -214.5t-261.5 -70.5h-246q-293 0 -293 -303q0 -138 63.5 -223.5t157.5 -85.5q82 0 135 39 q-47 65 -47 158q0 128 80.5 188t208.5 60h180l-43 -197h-84q-39 0 -67.5 -26.5t-28.5 -71.5q0 -59 44 -94t132 -35h158l-43 -197h-160q-89 0 -144.5 16.5t-99.5 57.5q-87 -99 -258 -99q-196 0 -321 137.5t-125 370.5zM512 1016q0 -29 20.5 -50.5t47.5 -21.5q30 0 50.5 21 t20.5 51q0 31 -20 51t-51 20q-27 0 -47.5 -20.5t-20.5 -50.5z" />
<glyph unicode="&#xe56;" horiz-adv-x="1275" d="M0 1167h264l74 -297q58 64 148.5 104t201.5 40q134 0 248.5 -60.5t186 -178t71.5 -267.5q0 -105 -35 -198.5t-103 -169.5t-181.5 -120.5t-258.5 -44.5q-233 0 -363 101t-130 264q0 151 121 250l182 -131q-49 -62 -49 -121q0 -70 62 -116t179 -46q146 0 230 98t84 240 q0 137 -80 218t-221 81q-86 0 -156 -30.5t-115 -86.5h-200z" />
<glyph unicode="&#xe57;" horiz-adv-x="1677" d="M86 504q0 233 97 371.5t261 138.5q149 0 195 -131q61 131 229 131q122 0 188 -89.5t66 -246.5v-502h35q139 0 139 166v805h254v-793q0 -166 -97.5 -260t-289.5 -94h-286v692q0 59 -16.5 91t-57.5 32q-80 0 -80 -131v-70h-172v70q0 71 -17 101t-65 30q-67 0 -94 -81 t-27 -228q0 -149 44.5 -237.5t123.5 -88.5q46 0 105 27l47 -162q-73 -61 -168 -61q-193 0 -303.5 137t-110.5 383z" />
<glyph unicode="&#xe58;" horiz-adv-x="1366" d="M119 342v238q0 180 131 294.5t346 114.5h283q69 0 93.5 21t24.5 63v74h258v-74q0 -143 -91 -214t-261 -71h-295q-110 0 -168.5 -59t-58.5 -160v-200q0 -145 104 -156l228 162l243 -160q39 18 62.5 52t23.5 79q0 57 -38 93t-97 44l78 195q148 -23 227.5 -110t79.5 -228 q0 -135 -103.5 -242t-232.5 -112l-241 172l-217 -170q-185 4 -282 95.5t-97 258.5z" />
<glyph unicode="&#xe59;" horiz-adv-x="1318" d="M82 510q0 228 115.5 366t291.5 138q92 0 160 -36t103 -104q2 61 42.5 100.5t106.5 39.5q109 0 152 -107l39 240h227l-86 -430h-197q-16 60 -41.5 83t-66.5 23q-36 0 -57 -24.5t-21 -61.5l258 -737h-246l-244 692q-26 67 -50 94t-70 27q-71 0 -112.5 -82.5t-41.5 -218.5 q0 -157 45.5 -244.5t112.5 -87.5q70 0 143 41l53 -176q-87 -65 -211 -65q-173 0 -289 143t-116 387z" />
<glyph unicode="&#xe5b;" horiz-adv-x="2363" d="M119 594q0 205 133.5 339t339.5 134q91 0 166.5 -35.5t124 -95t75.5 -134t29 -155.5h-184q-8 112 -64.5 180t-148.5 68q-123 0 -194.5 -89t-71.5 -212q0 -149 95 -237.5t243 -88.5q92 0 171.5 40.5t135 106t96.5 151t62 173t26 174.5h125l133 -381l98 338h121l113 -319 l86 272h110q4 -162 65 -248t155 -86q57 0 131 27l53 -139q-118 -37 -203 -37q-166 0 -258 149l-78 -251h-106l-119 319l-111 -356h-108l-113 315q-68 -191 -228.5 -310.5t-375.5 -119.5q-237 0 -380.5 143.5t-143.5 364.5z" />
<glyph unicode="&#x2000;" horiz-adv-x="1129" />
<glyph unicode="&#x2001;" horiz-adv-x="2259" />
<glyph unicode="&#x2002;" horiz-adv-x="1129" />
<glyph unicode="&#x2003;" horiz-adv-x="2259" />
<glyph unicode="&#x2004;" horiz-adv-x="753" />
<glyph unicode="&#x2005;" horiz-adv-x="564" />
<glyph unicode="&#x2006;" horiz-adv-x="376" />
<glyph unicode="&#x2007;" horiz-adv-x="376" />
<glyph unicode="&#x2008;" horiz-adv-x="282" />
<glyph unicode="&#x2009;" horiz-adv-x="451" />
<glyph unicode="&#x200a;" horiz-adv-x="125" />
<glyph unicode="&#x2010;" horiz-adv-x="675" d="M41 424v209h594v-209h-594z" />
<glyph unicode="&#x2011;" horiz-adv-x="675" d="M41 424v209h594v-209h-594z" />
<glyph unicode="&#x2012;" horiz-adv-x="675" d="M41 424v209h594v-209h-594z" />
<glyph unicode="&#x2013;" horiz-adv-x="1097" d="M41 414v190h1016v-190h-1016z" />
<glyph unicode="&#x2014;" horiz-adv-x="1998" d="M102 414v190h1794v-190h-1794z" />
<glyph unicode="&#x2018;" horiz-adv-x="466" d="M106 1057q0 75 45.5 174.5t102.5 175.5l96 -37q-31 -41 -52.5 -97t-21.5 -87q0 -29 25 -29q42 0 65 -35t23 -86q0 -57 -34.5 -91t-96.5 -34q-152 0 -152 146z" />
<glyph unicode="&#x2019;" horiz-adv-x="466" d="M78 1282q0 57 34.5 91t96.5 34q151 0 151 -145q0 -75 -45 -175t-102 -176l-96 37q30 41 51.5 97.5t21.5 87.5q0 9 -1 14t-6.5 9.5t-16.5 4.5q-42 0 -65 35t-23 86z" />
<glyph unicode="&#x201a;" horiz-adv-x="466" d="M78 156q0 57 34.5 91t96.5 34q151 0 151 -146q0 -75 -45 -174.5t-102 -175.5l-96 37q30 41 51.5 97t21.5 87q0 29 -24 29q-42 0 -65 35t-23 86z" />
<glyph unicode="&#x201c;" horiz-adv-x="827" d="M106 1057q0 75 45.5 174.5t102.5 175.5l96 -37q-31 -41 -52.5 -97t-21.5 -87q0 -29 25 -29q42 0 65 -35t23 -86q0 -57 -34.5 -91t-96.5 -34q-152 0 -152 146zM467 1057q0 75 45 174.5t102 175.5l97 -37q-31 -41 -52.5 -97t-21.5 -87q0 -29 25 -29q42 0 65 -35t23 -86 q0 -57 -35 -91t-97 -34q-151 0 -151 146z" />
<glyph unicode="&#x201d;" horiz-adv-x="827" d="M78 1282q0 57 34.5 91t96.5 34q151 0 151 -145q0 -75 -45 -175t-102 -176l-96 37q30 41 51.5 97.5t21.5 87.5q0 9 -1 14t-6.5 9.5t-16.5 4.5q-42 0 -65 35t-23 86zM438 1282q0 57 34.5 91t96.5 34q152 0 152 -145q0 -75 -45.5 -175t-102.5 -176l-96 37q30 41 52 98t22 87 q0 28 -25 28q-42 0 -65 35t-23 86z" />
<glyph unicode="&#x201e;" horiz-adv-x="827" d="M78 156q0 57 34.5 91t96.5 34q151 0 151 -146q0 -75 -45 -174.5t-102 -175.5l-96 37q30 41 51.5 97t21.5 87q0 29 -24 29q-42 0 -65 35t-23 86zM438 156q0 57 34.5 91t96.5 34q152 0 152 -146q0 -75 -45.5 -174.5t-102.5 -175.5l-96 37q30 42 52 98t22 86q0 29 -25 29 q-42 0 -65 35t-23 86z" />
<glyph unicode="&#x2020;" horiz-adv-x="1120" d="M90 805v184h340v391h260v-391h340v-184h-340v-805h-260v805h-340z" />
<glyph unicode="&#x2021;" horiz-adv-x="1120" d="M90 289v184h340v332h-340v184h340v391h260v-391h340v-184h-340v-332h340v-184h-340v-391h-260v391h-340z" />
<glyph unicode="&#x2022;" horiz-adv-x="663" d="M82 678q0 104 64 172t186 68t186 -68t64 -172q0 -102 -65.5 -170t-184.5 -68q-122 0 -186 67.5t-64 170.5z" />
<glyph unicode="&#x2026;" horiz-adv-x="1609" d="M102 133q0 66 45 113t121 47t121 -47t45 -113t-45 -113t-121 -47t-121 47t-45 113zM639 133q0 66 45 113t121 47t121 -47t45 -113t-45 -113t-121 -47t-121 47t-45 113zM1176 133q0 66 44.5 113t120.5 47t121 -47t45 -113t-45 -113t-121 -47t-120.5 47t-44.5 113z" />
<glyph unicode="&#x202f;" horiz-adv-x="451" />
<glyph unicode="&#x2030;" horiz-adv-x="2338" d="M61 993q0 152 85.5 257.5t222.5 105.5t222 -105.5t85 -257.5t-85 -257t-222 -105t-222.5 105t-85.5 257zM270 993q0 -89 26.5 -145.5t72.5 -56.5t72 56.5t26 145.5t-26 146t-72 57t-72.5 -57t-26.5 -146zM313 0l752 1352h244l-752 -1352h-244zM946 338q0 152 85 257 t222 105t222.5 -105t85.5 -257t-85.5 -257.5t-222.5 -105.5t-222 105.5t-85 257.5zM1155 338q0 -89 26 -146t72 -57t72.5 57t26.5 146t-26.5 146t-72.5 57t-72 -57t-26 -146zM1663 338q0 152 85 257t222 105t222 -105t85 -257t-85 -257.5t-222 -105.5t-222 105.5t-85 257.5z M1872 338q0 -89 26 -146t72 -57t72 57t26 146t-26 146t-72 57t-72 -57t-26 -146z" />
<glyph unicode="&#x2039;" horiz-adv-x="616" d="M41 496l262 368h252l-260 -368l260 -369h-252z" />
<glyph unicode="&#x203a;" horiz-adv-x="616" d="M61 127l261 369l-261 368h252l262 -368l-262 -369h-252z" />
<glyph unicode="&#x2044;" horiz-adv-x="995" d="M0 0l752 1352h243l-751 -1352h-244z" />
<glyph unicode="&#x205f;" horiz-adv-x="564" />
<glyph unicode="&#x20ac;" horiz-adv-x="1208" d="M86 489l41 132h98q-2 23 -2 69q0 49 2 74h-139l41 131h115q22 106 63 194.5t105 161t160.5 113.5t215.5 41q207 0 322 -115l-70 -209q-48 58 -110.5 86.5t-122.5 28.5q-98 0 -183.5 -72.5t-119.5 -228.5h420l-41 -131h-398q-2 -25 -2 -74q0 -46 2 -69h439l-41 -132h-379 q34 -159 119.5 -232t183.5 -73q60 0 122.5 28.5t110.5 86.5l70 -209q-115 -115 -322 -115q-119 0 -216 41.5t-161.5 114.5t-106 162.5t-60.5 195.5h-156z" />
<glyph unicode="&#x2113;" horiz-adv-x="849" d="M0 381q131 77 209 145v478q0 199 86 312.5t240 113.5q113 0 193.5 -87.5t80.5 -248.5q0 -174 -92 -341t-250 -294v-146q0 -69 20.5 -96t65.5 -27q73 0 129 33l55 -184q-101 -64 -241 -64q-287 0 -287 330l-107 -69zM459 688q60 105 80 159q41 112 41 247q0 76 -17 122 t-41 46q-63 0 -63 -258v-316z" />
<glyph unicode="&#x2122;" horiz-adv-x="1662" d="M41 1253v127h614v-127l-235 2v-653h-150v653zM772 604v776h174l154 -348q34 -76 63 -170h2q22 73 66 170l155 348h175v-776h-150v387q0 64 12 150h-6q-25 -84 -51 -137l-125 -275h-154l-120 275q-39 80 -52 137h-6q1 -13 6 -64.5t5 -85.5v-387h-148z" />
<glyph unicode="&#x2126;" horiz-adv-x="1552" d="M123 778q0 185 86.5 328t234.5 219t332 76q138 0 258 -45t207.5 -125t138 -197t50.5 -256q0 -91 -31 -185t-80.5 -170.5t-100 -135.5t-100.5 -99h240v-188h-504v139q62 40 121.5 99t113.5 136t86.5 175t32.5 199q0 129 -59.5 229.5t-157 152.5t-213.5 52 q-182 0 -308 -120t-126 -314q0 -101 32.5 -199.5t86 -175.5t113 -136t122.5 -98v-139h-503v188h239q-50 40 -100.5 99t-99.5 135.5t-80 170.5t-31 185z" />
<glyph unicode="&#x212e;" horiz-adv-x="1675" d="M74 662q0 147 60.5 276t163.5 219t243.5 141.5t296.5 51.5q208 0 383 -86.5t278 -241.5t103 -344v-45h-1250v-375q22 -26 66.5 -61.5t108 -74.5t147 -66t162.5 -27q83 0 166 24t145 60.5t107 74t69 70.5h147q-115 -138 -281.5 -211.5t-350.5 -73.5q-209 0 -383 86.5 t-277.5 245.5t-103.5 357zM352 690h971v373q-25 34 -70.5 71.5t-107.5 74t-144.5 60t-164.5 23.5q-79 0 -162.5 -27t-147 -66t-108 -74.5t-66.5 -61.5v-373z" />
<glyph unicode="&#x2202;" horiz-adv-x="1241" d="M70 348q0 142 71 271t200.5 210.5t283.5 81.5q50 0 90 -8t76.5 -29t53.5 -33t54 -42q19 51 19 112q0 108 -59 167t-165 59q-151 0 -272 -74l-39 197q69 42 167 68t195 26q203 0 312.5 -120.5t109.5 -338.5q0 -90 -19.5 -189.5t-56.5 -202.5t-97.5 -196t-136 -166 t-179 -116t-219.5 -43q-183 0 -286 98.5t-103 267.5zM338 367q0 -85 37 -127.5t106 -42.5q113 0 213.5 107t149.5 288q-85 100 -219 100q-128 0 -207.5 -99t-79.5 -226z" />
<glyph unicode="&#x2206;" horiz-adv-x="1310" d="M41 0l545 1380h135l549 -1380h-1229zM375 207h551l-273 768z" />
<glyph unicode="&#x220f;" horiz-adv-x="1267" d="M164 -96v1476h940v-1476h-250v1267h-440v-1267h-250z" />
<glyph unicode="&#x2211;" horiz-adv-x="1136" d="M74 23l479 626l-442 604v127h927v-176h-612l410 -553l-437 -573h676v-176h-1001v121z" />
<glyph unicode="&#x2212;" horiz-adv-x="1208" d="M164 477v209h880v-209h-880z" />
<glyph unicode="&#x221a;" horiz-adv-x="1089" d="M25 610v187h331l158 -514l313 1097h222l-426 -1403h-213l-213 633h-172z" />
<glyph unicode="&#x221e;" horiz-adv-x="1597" d="M102 635q0 139 94 226t244 87q204 0 361 -186q56 77 146.5 131.5t207.5 54.5q148 0 244 -86.5t96 -224.5t-92.5 -229t-243.5 -91q-109 0 -202.5 51.5t-159.5 135.5q-66 -79 -161.5 -133t-197.5 -54q-148 0 -242 87.5t-94 230.5zM279 637q0 -79 48.5 -130.5t125.5 -51.5 q72 0 143.5 51t124.5 129q-53 73 -124 111t-148 38q-83 0 -126.5 -39t-43.5 -108zM877 635q104 -158 270 -158q84 0 127 44t43 116q0 73 -43 122.5t-129 49.5q-74 0 -138.5 -45t-129.5 -129z" />
<glyph unicode="&#x222b;" horiz-adv-x="909" d="M53 -51l56 184q56 -33 129 -33q45 0 65.5 27t20.5 96v826q0 356 290 356q141 0 242 -64l-55 -184q-56 33 -129 33q-45 0 -65.5 -27t-20.5 -96v-825q0 -357 -291 -357q-141 0 -242 64z" />
<glyph unicode="&#x2248;" horiz-adv-x="1208" d="M74 324q108 241 323 241q53 0 106.5 -22.5t90.5 -50t85.5 -50t92.5 -22.5q54 0 96.5 36.5t87.5 108.5l123 -125q-108 -241 -323 -241q-52 0 -106 22.5t-92.5 50t-87 50t-89.5 22.5q-54 0 -96.5 -36.5t-87.5 -108.5zM74 713q108 241 323 241q53 0 106.5 -22.5t90.5 -50 t85.5 -50t92.5 -22.5q54 0 96.5 36.5t87.5 108.5l123 -125q-108 -241 -323 -241q-52 0 -106 22.5t-92.5 50t-87 50t-89.5 22.5q-54 0 -96.5 -36.5t-87.5 -108.5z" />
<glyph unicode="&#x2260;" horiz-adv-x="1208" d="M164 285v188h325l74 189h-399v188h475l133 334h158l-133 -334h247v-188h-323l-74 -189h397v-188h-473l-112 -285h-158l113 285h-250z" />
<glyph unicode="&#x2264;" horiz-adv-x="1208" d="M123 0v147h926v-147h-926zM123 657v148l926 483v-252l-641 -305l641 -305v-250z" />
<glyph unicode="&#x2265;" horiz-adv-x="1208" d="M160 0v147h925v-147h-925zM160 176v250l641 305l-641 305v252l925 -483v-148z" />
<glyph unicode="&#x25ca;" horiz-adv-x="1224" d="M66 698l466 703h160l467 -701l-467 -700h-160zM334 700q49 -73 135 -219.5t143 -228.5l275 448l-275 449z" />
<glyph unicode="&#x25fc;" horiz-adv-x="993" d="M0 0v993h993v-993h-993z" />
<glyph unicode="&#xf700;" horiz-adv-x="1120" d="M8 999q89 81 214.5 126.5t275.5 45.5q118 0 217 -45l86 101h293l-191 -228q139 -158 139 -393q0 -123 -40.5 -236t-107.5 -193.5t-159 -128.5t-192 -48h-217l-103 406q-9 47 -59 47h-76v213h150q86 0 135 -32t71 -118l76 -303h23q97 13 165 119t68 276q0 169 -78 259.5 t-215 90.5q-220 0 -393 -149z" />
<glyph unicode="&#xf701;" d="M-1288 1290v201h776v-201h-776z" />
<glyph unicode="&#xf702;" d="M-1288 1290v201h538v195h238v-396h-776z" />
<glyph unicode="&#xf703;" d="M-1288 1290v201h407q0 93 61 154t150 61t150 -59.5t61 -149.5q0 -87 -61.5 -147t-149.5 -60h-618zM-741 1499q0 -31 21 -52.5t50 -21.5q31 0 51.5 21.5t20.5 52.5q0 32 -20.5 53t-51.5 21q-30 0 -50.5 -21t-20.5 -53z" />
<glyph unicode="&#xf704;" d="M-1288 1290v201h317v195h185v-205h90v205h184v-396h-776z" />
<glyph unicode="&#xf705;" d="M-799 1290v398h246v-398h-246z" />
<glyph unicode="&#xf706;" d="M-1120 1473v210h219q133 0 133 -114v-43q0 -31 29 -31h270v-205h-395q-48 0 -77.5 27t-29.5 74v51q0 31 -28 31h-121z" />
<glyph unicode="&#xf707;" d="M-1212 1446q0 75 60 141t159 70l116 -86l105 90q90 -4 145.5 -66t55.5 -145q0 -32 -7 -53q27 32 41.5 88.5t14.5 111.5q0 53 -35 125h207q26 -59 26 -133q0 -120 -76 -209.5t-200 -89.5h-133l-15 35q19 22 19 80q0 30 -15.5 51t-41.5 25l-86 -56l-103 50q-35 -13 -35 -70 q0 -59 29 -119h-184q-47 71 -47 160z" />
<glyph unicode="&#xf708;" d="M-1094 1464v183l201 -7l-6 179h225l-6 -179l201 7v-183l-201 6l6 -180h-225l6 180z" />
<glyph unicode="&#xf709;" d="M-1001 1290v121q0 112 69.5 175t202.5 63h229v-211h-184q-26 0 -42.5 -16t-16.5 -46v-86h-258z" />
<glyph unicode="&#xf70a;" d="M-389 1290v398h246v-398h-246z" />
<glyph unicode="&#xf70b;" d="M-723 1473v210h219q133 0 133 -114v-43q0 -31 29 -31h326v-205h-451q-48 0 -77 27t-29 74v51q0 31 -29 31h-121z" />
<glyph unicode="&#xf70c;" d="M-1008 1446q0 74 63.5 140.5t164.5 70.5l125 -86l114 90q90 -4 145.5 -66t55.5 -145q0 -35 -6 -53q27 31 41 88t14 112q0 53 -35 125h207q27 -62 27 -133q0 -120 -76.5 -209.5t-200.5 -89.5h-133l-14 35q18 21 18 72q0 30 -15.5 51t-41.5 25l-96 -56l-111 49 q-20 -7 -31.5 -26t-11.5 -43q0 -10 1 -20t1.5 -16.5t3 -15.5t3 -12t4.5 -12.5t4.5 -11t6 -12t5.5 -11.5h-185q-47 71 -47 160z" />
<glyph unicode="&#xf70d;" d="M-692 1464v183l200 -7l-6 179h226l-7 -179l201 7v-183l-201 6l7 -180h-226l6 180z" />
<glyph unicode="&#xf70e;" d="M-575 1290v121q0 112 69.5 175t202.5 63h262v-211h-217q-26 0 -42.5 -16t-16.5 -46v-86h-258z" />
<glyph unicode="&#xf70f;" horiz-adv-x="1916" d="M78 811q21 68 68.5 132t114.5 115t158 82t189 31q230 0 358 -125.5t128 -332.5v-289q0 -121 48 -178.5t163 -57.5t164 57.5t49 178.5v723h266v-735q0 -217 -120.5 -327t-358.5 -110t-358 110t-120 327v301q0 120 -60 182.5t-165 62.5q-78 0 -145.5 -41t-98.5 -98 l144 -117v-47q-101 -46 -101 -174v-239q0 -33 31 -33h119v-209h-180q-116 0 -176 59.5t-60 165.5v254q0 64 30 115t79 82z" />
<glyph unicode="&#xf710;" d="M-999 1524v102h245v-88q0 -47 47 -47h422v-201h-483q-105 0 -168 56t-63 178z" />
<glyph unicode="&#xf711;" d="M-975 1487q0 96 67.5 161.5t162.5 65.5q97 0 164 -65.5t67 -161.5t-67 -161.5t-164 -65.5q-95 0 -162.5 65.5t-67.5 161.5zM-823 1489q0 -35 23.5 -58.5t54.5 -23.5q35 0 57 23t22 59q0 35 -22 57.5t-57 22.5q-32 0 -55 -23t-23 -57z" />
<glyph unicode="&#xf712;" d="M-1272 1530q0 107 80.5 183.5t222.5 76.5h453v-182h-447q-106 0 -106 -80q0 -36 24 -60t60 -24q40 0 68 25.5t36 64.5h129q16 -61 93 -61h145v-183h-137q-50 0 -93.5 28.5t-68.5 76.5q-54 -115 -188 -115q-122 0 -196.5 65t-74.5 185z" />
<glyph unicode="&#xf713;" d="M-750 1796v336h238v-336h-238z" />
<glyph unicode="&#xf714;" d="M-944 1976v191h207q131 0 131 -113v-39q0 -30 28 -30h289v-189h-403q-47 0 -76 27t-29 71v52q0 30 -28 30h-119z" />
<glyph unicode="&#xf715;" d="M-1028 1937q0 68 54 128.5t145 64.5l122 -92l115 94q82 -4 131 -59t49 -131q0 -39 -4 -50q51 54 51 183q0 52 -32 112h202q25 -55 25 -119q0 -108 -76 -190t-190 -82h-121l-12 31q16 22 16 67q0 27 -14.5 46.5t-38.5 23.5l-96 -63l-99 57q-30 -10 -30 -64q0 -49 24 -102 h-180q-41 65 -41 145z" />
<glyph unicode="&#xf716;" d="M-915 1939v177l182 -7l-6 150h217l-6 -150l182 7v-177l-182 7l6 -150h-217l6 150z" />
<glyph unicode="&#xf717;" d="M-879 1597v109q0 102 63.5 159.5t184.5 57.5h225v-199h-176q-24 0 -38.5 -14.5t-14.5 -40.5v-72h-244z" />
<glyph unicode="&#xf718;" d="M-502 -510h172q101 0 149 -44t48 -142v-256h-242v196q0 49 -49 49h-78v197z" />
<glyph unicode="&#xf719;" d="M-862 -510h348v-229q0 -33 21 -49.5t53 -16.5q33 0 53 16t20 50v229h234v-229q0 -105 -81 -168.5t-226 -63.5t-224 63.5t-79 168.5v43h-119v186z" />
<glyph unicode="&#xf71a;" d="M-426 -655q0 65 49 113t115 48q69 0 117.5 -47.5t48.5 -113.5t-48.5 -113t-117.5 -47q-66 0 -115 48t-49 112z" />
<glyph unicode="&#xf71b;" horiz-adv-x="1290" d="M51 0v209h94q31 0 31 33v237q0 127 100 189l-186 143q42 146 196.5 253t360.5 107q245 0 377.5 -125t132.5 -333v-1082h-278q-44 44 -115 75.5t-135 31.5q-90 0 -162 -25t-156 -94l-71 209q67 64 149 96.5t199 32.5q88 0 173 -34t130 -85v875q0 121 -65.5 183t-184.5 62 q-87 0 -162.5 -41t-107.5 -98l159 -123v-45q-88 -48 -88 -170v-256q0 -107 -59.5 -166t-175.5 -59h-156z" />
<glyph unicode="&#xf71c;" horiz-adv-x="1290" d="M51 0v209h94q31 0 31 33v237q0 127 100 189l-186 143q42 146 196.5 253t360.5 107q245 0 377.5 -125t132.5 -333v-1082h-274l-199 125q-45 -68 -106 -104.5t-152 -36.5q-141 0 -244 59l68 209q93 -59 182 -59q174 0 215 164l244 -160v885q0 121 -65.5 183t-184.5 62 q-87 0 -162.5 -41t-107.5 -98l159 -123v-45q-88 -48 -88 -170v-256q0 -107 -59.5 -166t-175.5 -59h-156z" />
<glyph unicode="&#xf71d;" horiz-adv-x="1404" d="M137 0v1147h254v-510q0 -196 -33 -399h7q46 184 110 307l141 280h164l150 -280q64 -123 110 -307h7q-33 203 -33 399v53q0 66 -21 94.5t-69 28.5h-31l-41 98l217 316h266l-231 -297q79 -26 121.5 -92t42.5 -154v-684h-291l-191 393q-56 115 -86 246h-4q-30 -131 -86 -246 l-182 -393h-291z" />
<glyph horiz-adv-x="999" d="M-975 1487q0 96 67.5 161.5t162.5 65.5q97 0 164 -65.5t67 -161.5t-67 -161.5t-164 -65.5q-95 0 -162.5 65.5t-67.5 161.5zM-823 1489q0 -35 23.5 -58.5t54.5 -23.5q35 0 57 23t22 59q0 35 -22 57.5t-57 22.5q-32 0 -55 -23t-23 -57zM8 1038q203 133 430 133 q208 0 318 -117.5t110 -324.5v-729h-266v737q0 221 -184 221q-168 0 -340 -110z" />
<glyph d="M-967 1481q0 95 71 151t204 37q-43 34 -43 86q0 44 36.5 74.5t114.5 30.5h168l37 -146h-168q-10 0 -17 -9.5t-7 -21.5q0 -17 18.5 -31t54.5 -30l-43 -96q-73 24 -141 24q-39 0 -66.5 -15t-27.5 -42q0 -29 24.5 -47.5t65.5 -18.5q66 0 133 27v-135q-71 -41 -156 -41 q-119 0 -188.5 49.5t-69.5 153.5z" />
</font>
</defs>
</svg>
